<?xml version="1.0" standalone="no"?>
<!DOCTYPE svg PUBLIC "-//W3C//DTD SVG 20010904//EN"
 "http://www.w3.org/TR/2001/REC-SVG-20010904/DTD/svg10.dtd">
<svg version="1.0" xmlns="http://www.w3.org/2000/svg"
 width="200.000000pt" height="200.000000pt" viewBox="0 0 200.000000 200.000000"
 preserveAspectRatio="xMidYMid meet">
<metadata>
Created by potrace 1.14, written by Peter Selinger 2001-2017
</metadata>
<g transform="translate(0.000000,200.000000) scale(0.100000,-0.100000)"
fill="#000000" stroke="none">
<path d="M830 1986 c0 -2 7 -7 16 -10 8 -3 12 -2 9 4 -6 10 -25 14 -25 6z"/>
<path d="M1235 1980 c-3 -5 -1 -10 4 -10 6 0 11 5 11 10 0 6 -2 10 -4 10 -3 0
-8 -4 -11 -10z"/>
<path d="M894 1969 c-2 -4 -22 -6 -44 -5 -22 0 -40 -3 -40 -8 0 -4 -11 -6 -25
-4 -15 3 -22 1 -18 -5 4 -6 0 -8 -9 -4 -9 3 -20 1 -25 -4 -5 -5 -23 -11 -40
-12 -17 -1 -29 -5 -26 -9 2 -5 -4 -8 -14 -8 -10 0 -27 -7 -37 -15 -17 -13 -21
-12 -32 3 -12 15 -12 15 -7 -6 4 -18 2 -21 -12 -15 -13 4 -16 3 -11 -5 4 -7 2
-12 -3 -12 -6 0 -33 -14 -61 -31 -27 -17 -54 -28 -60 -24 -6 4 -7 -1 -3 -12 3
-10 3 -15 -1 -12 -4 4 -18 -4 -32 -18 -13 -13 -29 -21 -36 -17 -6 4 -8 3 -5
-3 8 -13 -27 -46 -38 -36 -4 5 -5 3 -2 -4 4 -6 -3 -20 -15 -30 -13 -10 -36
-36 -53 -58 -16 -22 -35 -46 -41 -53 -7 -6 -16 -21 -19 -32 -4 -11 -11 -18
-16 -14 -5 3 -9 2 -8 -3 4 -21 -2 -34 -13 -27 -7 4 -8 3 -4 -4 7 -12 -31 -94
-47 -100 -4 -2 -4 -8 -1 -13 3 -6 0 -17 -7 -25 -7 -9 -14 -23 -15 -32 -1 -10
-9 -47 -18 -83 -19 -80 -25 -122 -27 -205 -1 -43 -5 -61 -13 -57 -6 4 -5 0 1
-9 7 -8 15 -42 17 -74 2 -32 9 -70 14 -84 7 -20 6 -26 -7 -32 -14 -6 -14 -7 1
-7 11 -1 15 -6 12 -16 -4 -8 -1 -15 6 -15 9 0 9 -4 -1 -17 -8 -9 -9 -14 -3
-10 6 3 16 -5 22 -18 10 -21 9 -25 -4 -25 -8 0 -13 4 -9 9 3 5 1 12 -4 15 -5
4 -8 -2 -7 -11 2 -10 13 -19 24 -21 12 -2 22 -8 22 -13 0 -6 -4 -8 -9 -4 -5 3
-13 0 -17 -6 -4 -7 -3 -9 4 -5 6 3 18 -4 26 -16 14 -20 14 -24 -2 -42 -16 -19
-16 -20 0 -7 24 18 41 6 28 -20 -6 -11 -15 -17 -20 -14 -5 3 -11 2 -14 -3 -8
-13 27 -11 39 2 6 6 9 9 8 7 -1 -2 7 -15 17 -29 15 -18 17 -28 10 -37 -14 -17
16 -49 38 -40 12 4 12 3 3 -9 -9 -11 -9 -14 3 -12 8 0 16 -3 17 -9 2 -5 13
-18 26 -29 22 -17 23 -20 9 -35 -9 -10 -16 -21 -16 -26 0 -5 6 0 14 10 13 18
15 18 40 2 15 -10 24 -22 21 -28 -4 -5 -11 -7 -16 -3 -5 3 -7 10 -4 15 4 5 2
9 -4 9 -5 0 -11 -3 -14 -7 -2 -5 -2 -1 0 7 3 12 2 12 -8 3 -16 -16 4 -42 29
-38 18 3 68 -20 89 -40 10 -11 10 -14 -3 -19 -10 -4 -13 -2 -8 6 5 7 3 8 -6 3
-8 -5 -11 -4 -7 3 5 6 0 8 -13 5 -25 -7 -27 -21 -2 -19 11 0 16 -6 16 -17 -2
-17 0 -17 23 -2 19 13 27 14 39 4 17 -14 18 -29 3 -29 -5 0 -7 5 -3 12 5 7 3
8 -6 3 -9 -6 -11 -4 -5 6 7 12 6 12 -6 1 -12 -11 -11 -15 4 -23 9 -6 15 -14
12 -20 -4 -5 -2 -9 3 -9 6 0 13 11 16 25 l6 25 22 -19 c11 -11 25 -18 30 -15
4 3 12 -3 16 -13 7 -17 22 -25 49 -26 19 -1 5 -11 -17 -12 -11 -1 -16 3 -13 9
4 6 -2 4 -13 -4 -10 -8 -21 -16 -24 -18 -2 -2 11 0 29 3 29 5 32 4 22 -9 -9
-11 -9 -16 0 -22 7 -4 9 -3 5 4 -3 6 3 16 14 22 11 6 20 7 20 3 0 -4 5 -1 10
7 7 11 10 11 10 2 0 -7 5 -10 12 -6 6 4 8 3 4 -4 -3 -6 -2 -13 4 -17 5 -3 10
-1 10 6 0 8 4 8 15 -1 9 -7 18 -10 22 -6 3 3 15 -2 26 -11 10 -10 21 -17 23
-15 10 6 34 1 34 -8 0 -12 -22 -9 -32 5 -5 6 -8 4 -8 -5 0 -13 -1 -13 -10 0
-7 12 -9 10 -7 -7 0 -12 3 -20 6 -18 2 3 10 0 18 -7 7 -6 16 -8 20 -4 3 3 1 6
-6 6 -7 0 -9 5 -6 11 5 7 13 5 25 -6 15 -14 18 -14 30 0 8 9 20 13 33 9 13 -4
17 -2 13 5 -5 7 -1 9 8 5 25 -10 19 -23 -9 -19 -14 1 -27 -1 -30 -4 -2 -4 39
-7 91 -6 68 0 90 3 80 10 -11 8 -5 11 25 11 22 0 34 -3 27 -7 -7 -4 -16 -5
-20 -3 -4 3 -8 1 -8 -3 0 -12 221 -10 240 2 15 9 36 14 76 17 21 2 21 3 5 27
-9 14 -11 22 -4 18 6 -4 14 -1 17 5 3 7 4 4 3 -7 -1 -12 3 -19 12 -17 9 2 11
-3 7 -15 -6 -17 -5 -17 7 -1 8 10 18 14 22 10 5 -4 5 -2 2 4 -4 7 1 18 10 25
15 12 16 12 10 -3 -3 -10 -2 -20 4 -23 5 -4 9 -3 8 2 -1 4 -1 16 0 27 1 16 3
16 17 6 12 -11 15 -11 12 1 -2 9 5 14 18 13 14 0 20 4 17 13 -4 9 -10 10 -23
3 -9 -5 -21 -6 -25 -2 -5 4 -5 0 0 -8 5 -8 4 -12 0 -7 -5 4 -19 0 -32 -8 -14
-9 -23 -11 -23 -5 0 6 -5 8 -11 5 -6 -4 -8 -13 -6 -19 3 -7 -1 -13 -9 -13 -12
0 -12 3 0 21 8 12 22 20 31 18 10 -2 14 1 10 7 -3 6 0 9 8 5 8 -3 19 2 26 10
7 8 20 12 28 9 11 -4 14 -2 9 6 -4 6 -4 11 1 10 21 -4 34 2 27 13 -4 7 -3 8 5
4 8 -5 9 -12 2 -20 -7 -8 -6 -17 1 -26 8 -12 9 -12 4 2 -6 20 10 34 17 16 4
-10 6 -10 6 0 1 7 5 10 11 7 6 -3 7 1 4 9 -6 15 12 22 41 16 5 -1 7 2 3 6 -5
4 2 12 15 19 12 6 21 16 20 22 -1 6 12 18 30 27 18 8 26 16 19 16 -7 0 -10 4
-7 10 4 6 -1 7 -11 3 -12 -4 -15 -3 -10 5 4 7 19 12 34 12 22 0 24 -2 12 -11
-12 -9 -12 -10 3 -5 10 3 22 6 25 6 4 1 -4 7 -17 14 l-24 13 36 38 c30 32 37
36 43 22 3 -9 10 -17 15 -17 5 0 1 12 -8 27 -10 15 -12 24 -5 20 7 -5 12 -3
12 3 0 7 14 32 30 57 17 24 40 63 52 86 21 40 23 46 27 65 1 4 6 0 12 -8 8
-11 9 -8 4 13 -4 21 -3 27 6 21 9 -5 10 -2 5 11 -4 10 -2 21 5 25 6 4 13 26
14 50 2 25 11 48 22 57 10 8 12 12 6 8 -7 -3 -13 -1 -13 4 0 6 6 11 13 11 8 0
7 4 -3 10 -8 5 -10 10 -5 10 6 0 11 10 11 23 1 123 5 158 17 151 9 -6 9 -4 1
7 -6 8 -12 30 -13 49 -2 34 -4 53 -16 135 -3 21 -20 80 -37 130 -16 49 -31 95
-31 102 0 7 -4 10 -8 8 -10 -7 -20 25 -12 37 3 7 1 8 -5 4 -7 -4 -12 -3 -12 3
0 5 -15 31 -32 57 -18 25 -37 53 -43 62 -5 9 -16 22 -24 28 -8 6 -11 16 -7 23
5 7 2 10 -6 9 -7 -2 -12 3 -10 10 1 8 -2 11 -6 8 -12 -7 -44 28 -35 38 5 4 1
6 -7 4 -8 -2 -14 3 -12 10 1 8 -2 11 -8 7 -5 -3 -13 1 -16 9 -3 9 -10 14 -14
11 -5 -3 -12 1 -17 8 -4 8 -18 19 -30 26 -13 6 -23 19 -23 29 0 10 -3 13 -8 6
-5 -7 -18 -3 -39 12 -18 12 -29 25 -25 28 3 4 -1 4 -11 0 -11 -4 -19 0 -23 9
-3 9 -12 13 -20 10 -7 -3 -16 2 -20 10 -3 9 -12 13 -19 11 -7 -3 -16 -1 -20 5
-3 6 -15 11 -26 11 -11 0 -18 4 -15 9 4 5 -4 7 -16 3 -13 -3 -19 -1 -15 5 5 7
0 9 -12 6 -10 -3 -22 0 -25 6 -4 5 -14 7 -23 4 -10 -4 -14 -2 -10 4 5 7 0 9
-13 6 -13 -4 -27 1 -36 13 -9 11 -13 13 -9 6 5 -9 -4 -11 -37 -7 -65 9 -239
11 -244 4z m86 -108 c0 12 2 12 9 1 4 -8 12 -14 16 -14 4 0 12 6 16 14 5 7 9
8 9 2 0 -6 16 -11 37 -10 24 1 38 -4 40 -14 4 -13 3 -13 -6 0 -7 9 -11 10 -11
3 0 -6 -9 -11 -20 -10 -11 1 -20 5 -20 10 0 5 -8 3 -17 -4 -9 -8 -14 -9 -10
-3 4 7 -3 10 -18 10 -34 -2 -36 -8 -16 -35 13 -17 18 -19 18 -7 0 9 -4 16 -9
16 -5 0 -6 5 -2 12 5 8 14 4 27 -13 13 -16 18 -18 14 -6 -4 9 -2 17 2 17 5 0
11 -5 13 -11 3 -9 9 -9 25 0 14 7 24 8 28 1 3 -5 1 -10 -5 -10 -6 0 -8 -5 -4
-11 4 -8 9 -7 15 2 5 8 9 10 9 5 0 -5 7 -3 15 4 8 7 13 16 10 20 -3 5 0 12 6
16 8 4 9 3 5 -4 -4 -7 -2 -12 3 -12 6 0 11 6 12 13 0 9 2 9 6 -1 2 -6 10 -9
15 -6 7 4 8 2 4 -4 -5 -9 3 -11 28 -7 27 5 37 2 44 -12 5 -10 7 -24 5 -30 -6
-16 -3 -16 40 2 l34 14 -2 -28 c-2 -26 0 -29 23 -25 23 5 24 3 11 -13 -13 -16
-12 -17 3 -4 20 15 14 35 -9 27 -9 -4 -11 -2 -7 6 5 7 3 8 -6 3 -9 -5 -11 -4
-6 3 5 9 13 9 29 0 12 -7 24 -13 27 -13 3 0 19 -9 37 -18 36 -19 58 -51 47
-69 -4 -7 -3 -8 4 -4 7 4 12 2 12 -4 0 -6 5 -8 10 -5 6 4 4 12 -5 21 -32 32
-13 24 38 -16 28 -23 52 -46 52 -52 0 -5 11 -15 24 -22 20 -11 21 -14 7 -19
-11 -5 -15 -3 -10 5 4 7 3 8 -4 4 -18 -11 -14 -22 13 -34 16 -7 23 -17 19 -27
-3 -8 -2 -15 4 -15 16 0 7 31 -13 46 -10 8 -14 14 -8 14 16 0 62 -52 106 -120
17 -27 17 -29 0 -45 -16 -17 -16 -17 4 -11 18 6 25 1 38 -24 13 -25 14 -34 4
-46 -9 -12 -9 -13 3 -9 9 4 19 -4 27 -21 10 -22 9 -28 -6 -40 -17 -13 -17 -14
1 -7 16 5 18 3 13 -11 -4 -10 -3 -15 3 -11 6 3 11 -1 11 -9 1 -9 2 -22 3 -28
1 -7 -2 -19 -7 -26 -7 -9 -5 -11 9 -5 17 6 18 5 4 -12 -8 -10 -10 -16 -3 -12
7 5 12 1 12 -10 0 -10 2 -44 4 -76 3 -33 2 -55 -4 -52 -5 4 -9 1 -9 -4 0 -6 4
-11 9 -11 6 0 8 -10 5 -22 -3 -13 -5 -38 -5 -57 0 -18 -3 -39 -6 -45 -4 -6 -8
-15 -8 -21 -2 -31 -18 -95 -24 -95 -4 0 -8 -10 -8 -22 -1 -13 -7 -24 -12 -26
-5 -2 -7 -10 -4 -18 3 -8 0 -14 -7 -14 -6 0 -9 -4 -5 -10 3 -5 -3 -18 -13 -28
-10 -10 -16 -24 -14 -30 2 -7 -1 -12 -7 -12 -6 0 -11 -4 -11 -9 0 -14 -52 -91
-62 -91 -4 0 -8 -5 -8 -11 0 -15 -107 -119 -114 -112 -3 4 -6 2 -6 -4 0 -10
-53 -52 -124 -97 -19 -12 -26 -13 -21 -5 4 8 1 7 -7 -1 -13 -16 -101 -57 -135
-63 -10 -2 -25 -7 -33 -10 -8 -4 -37 -11 -65 -16 -40 -8 -53 -6 -67 5 -12 12
-18 12 -24 3 -4 -7 -3 -10 4 -5 6 3 13 2 16 -3 9 -14 -31 -20 -45 -7 -7 6 -9
7 -6 0 4 -6 -10 -10 -38 -10 -26 1 -41 5 -37 11 3 5 -1 4 -10 -3 -9 -7 -19 -9
-22 -4 -3 5 -24 8 -47 6 -29 -2 -39 1 -36 10 3 7 -1 13 -9 13 -7 0 -10 -5 -7
-10 4 -6 -3 -7 -18 -3 -33 10 -39 11 -79 20 -19 5 -40 12 -46 18 -7 5 -23 11
-35 13 -13 3 -25 9 -27 15 -2 5 -11 10 -20 10 -20 0 -82 42 -82 55 0 6 14 23
30 38 22 21 30 38 30 63 0 21 4 33 10 29 6 -3 10 -2 10 4 0 5 -6 11 -12 14
-10 3 -9 8 2 22 9 12 10 16 2 11 -9 -6 -11 -1 -8 18 3 14 7 30 11 36 3 5 2 10
-2 10 -5 0 -7 16 -5 35 3 22 8 33 16 28 6 -3 8 -3 4 2 -4 4 -2 15 5 24 11 14
10 14 -6 2 -17 -14 -18 -13 -15 5 1 10 10 25 18 32 8 7 11 12 5 11 -25 -3 -27
2 -9 23 10 12 13 18 6 14 -10 -6 -12 4 -9 42 2 27 7 54 11 60 4 7 2 12 -4 12
-6 0 -8 5 -4 12 4 6 9 41 12 77 2 36 9 69 16 73 8 5 7 8 -3 8 -11 0 -11 3 0
17 8 9 9 14 3 10 -12 -7 -11 1 1 78 3 22 7 66 8 97 1 32 6 58 11 58 4 0 6 9 3
20 -3 11 0 20 6 20 8 0 8 3 0 11 -12 12 -6 42 6 35 4 -3 8 5 8 17 2 17 0 19
-7 7 -8 -13 -10 -12 -10 3 0 9 3 17 8 17 4 0 8 17 9 37 3 74 8 103 18 103 5 0
3 5 -5 10 -8 5 -10 10 -5 10 6 0 12 14 13 32 2 18 7 35 13 39 8 4 8 9 -1 14
-8 5 -6 13 7 28 10 11 13 18 8 14 -6 -3 -11 3 -11 14 0 10 5 19 10 19 5 0 6 3
3 6 -12 12 -87 -48 -87 -68 0 -11 -5 -28 -10 -39 -8 -14 -7 -19 2 -19 8 0 9
-3 3 -8 -6 -4 -11 -18 -12 -32 -1 -14 -5 -45 -9 -70 -4 -25 -7 -57 -7 -72 1
-16 -3 -28 -7 -28 -4 0 -6 -13 -4 -30 2 -16 0 -31 -4 -34 -5 -3 -7 -21 -6 -41
2 -24 0 -33 -8 -29 -7 5 -8 2 -2 -7 7 -12 7 -43 -2 -104 -1 -11 -3 -20 -4 -20
-2 0 -4 -32 -11 -137 -1 -21 -7 -38 -13 -38 -6 0 -6 -4 1 -11 8 -8 8 -20 3
-34 -5 -13 -6 -26 -2 -30 3 -3 0 -10 -8 -15 -11 -7 -11 -10 -2 -10 8 0 10 -8
6 -24 -5 -23 -14 -128 -14 -174 0 -14 -4 -20 -11 -16 -8 5 -8 1 0 -13 6 -11 8
-23 6 -25 -3 -3 -6 -30 -7 -61 -1 -32 -7 -57 -13 -57 -5 0 -3 -5 5 -10 8 -5
10 -10 5 -10 -6 0 -11 -24 -10 -55 0 -50 -5 -60 -28 -56 -5 1 -6 -3 -2 -9 3
-6 10 -8 15 -5 4 3 10 -4 13 -15 5 -20 5 -20 -24 1 -16 11 -27 25 -23 30 3 5
1 8 -4 7 -27 -8 -202 184 -202 220 0 7 -4 12 -9 12 -10 0 -21 27 -20 44 0 5
-4 12 -9 15 -6 3 -12 15 -14 26 -1 11 -7 23 -11 26 -5 4 -10 18 -10 32 -1 14
-5 23 -8 21 -7 -4 -27 82 -35 151 -11 103 -11 120 0 134 8 11 8 13 0 8 -12 -7
-11 34 3 103 3 19 6 39 4 43 -1 5 7 16 17 25 10 9 12 13 5 8 -10 -6 -12 -4
-10 10 6 40 61 171 85 202 13 17 20 32 16 32 -5 0 -1 7 9 14 10 8 18 17 17 20
-1 14 44 65 53 59 6 -4 8 0 4 10 -3 9 -3 16 1 14 4 -1 7 0 7 3 0 3 20 23 45
45 25 22 55 51 67 65 13 14 23 21 23 16 0 -5 9 -1 20 9 11 10 20 14 20 10 0
-5 6 -1 13 9 12 16 14 16 26 2 8 -9 18 -16 23 -16 5 0 2 7 -6 16 -9 8 -13 21
-9 27 5 8 9 7 11 -5 2 -12 12 -16 37 -15 18 1 31 5 28 10 -2 4 -8 5 -13 2 -5
-3 -11 -1 -14 4 -3 5 1 12 10 15 9 3 12 11 8 18 -4 7 -4 10 1 6 4 -4 14 -3 21
2 16 14 56 22 49 9 -4 -5 -11 -6 -17 -3 -7 4 -8 2 -4 -4 5 -8 1 -10 -11 -6
-14 4 -15 4 -4 -4 7 -5 18 -16 23 -23 7 -11 8 -9 6 5 -2 10 3 21 11 24 10 3
11 0 5 -9 -7 -12 -5 -12 9 0 9 7 23 11 31 8 10 -4 13 -1 10 8 -6 16 -25 16
-36 0 -4 -6 -8 -2 -8 8 0 9 5 18 10 18 11 2 25 5 38 9 4 1 11 2 16 1 4 -1 14
4 22 10 11 9 14 8 14 -1 0 -9 6 -8 19 4 19 17 20 17 31 -4 8 -15 8 -20 1 -16
-6 4 -11 2 -11 -4 0 -7 6 -10 13 -7 6 2 11 13 11 24 -1 16 4 20 23 18 13 -1
26 2 29 7 3 5 12 4 20 -3 11 -9 14 -8 14 2z m150 -41 c0 -5 -2 -10 -4 -10 -3
0 -8 5 -11 10 -3 6 -1 10 4 10 6 0 11 -4 11 -10z m162 -32 c-8 -8 -9 -4 -5 13
4 13 8 18 11 10 2 -7 -1 -18 -6 -23z m-671 -21 c-6 -8 -8 -17 -4 -20 3 -4 1
-7 -5 -7 -14 0 -14 2 -6 24 3 9 11 16 16 16 7 0 6 -5 -1 -13z m-426 -1318 c11
-17 -1 -21 -15 -4 -8 9 -8 15 -2 15 6 0 14 -5 17 -11z m1460 -199 c-4 -6 -11
-8 -16 -5 -8 6 -13 -8 -10 -27 0 -4 -16 -15 -37 -23 -20 -9 -42 -22 -48 -31
-10 -13 -12 -13 -18 1 -3 9 -2 13 3 10 6 -3 14 3 20 12 6 10 11 14 11 9 0 -5
9 3 21 18 11 14 24 24 29 21 4 -3 10 2 14 10 3 8 13 15 21 15 9 0 13 -5 10
-10z m-334 -197 c15 -15 -8 -12 -36 5 -19 11 -19 12 3 9 12 -2 27 -8 33 -14z
m-65 -9 c-1 -8 -5 -17 -9 -21 -11 -10 -117 -12 -123 -2 -5 9 -1 11 44 13 15 1
33 5 41 10 10 6 12 5 7 -2 -5 -8 1 -12 15 -12 17 0 19 3 10 13 -8 10 -7 14 3
14 8 0 13 -6 12 -13z m-462 -26 c-9 -14 -23 2 -17 18 4 12 8 13 14 3 4 -7 5
-17 3 -21z m496 22 c0 -5 -4 -10 -10 -10 -5 0 -10 5 -10 10 0 6 5 10 10 10 6
0 10 -4 10 -10z m-380 -18 c0 -5 -7 -9 -15 -9 -8 0 -12 4 -9 9 7 10 24 10 24
0z m40 4 c0 -2 -7 -7 -16 -10 -8 -3 -12 -2 -9 4 6 10 25 14 25 6z m160 -5 c0
-4 -11 -7 -24 -7 -14 0 -23 3 -21 6 5 9 45 10 45 1z"/>
<path d="M944 1845 c-5 -12 -9 -13 -14 -5 -4 7 -13 9 -19 6 -6 -4 -9 -12 -5
-17 3 -5 2 -16 -3 -22 -4 -7 0 -5 9 5 19 21 26 22 48 5 13 -10 13 -10 2 5 -10
13 -10 17 0 20 9 3 9 6 0 12 -7 4 -15 1 -18 -9z"/>
<path d="M852 1837 c-7 -8 -26 -13 -42 -12 -37 2 -46 -8 -23 -26 12 -10 14
-10 9 -1 -4 7 -1 12 9 12 9 0 14 -4 11 -8 -3 -5 1 -9 9 -9 11 0 12 4 4 14 -16
19 -3 16 17 -4 17 -17 18 -17 11 1 -5 12 -3 22 5 27 7 4 10 11 7 14 -4 3 -11
-1 -17 -8z"/>
<path d="M1170 1812 c0 -14 7 -20 23 -21 44 -1 57 -4 57 -15 0 -6 4 -4 10 4
13 21 -8 41 -38 35 -14 -2 -32 1 -39 7 -10 8 -13 6 -13 -10z m84 -10 c3 -5 -1
-9 -9 -9 -8 0 -15 4 -15 9 0 4 4 8 9 8 6 0 12 -4 15 -8z"/>
<path d="M656 1771 c-4 -5 -2 -12 3 -15 5 -4 12 -2 15 3 4 5 2 12 -3 15 -5 4
-12 2 -15 -3z"/>
<path d="M1304 1768 c-4 -6 -3 -8 4 -4 6 3 13 -2 15 -11 4 -14 5 -13 6 5 1 23
-13 30 -25 10z"/>
<path d="M1406 1734 c-9 -22 -7 -31 3 -16 12 20 56 -4 58 -31 2 -22 2 -22 -13
-2 -12 15 -15 16 -12 4 4 -19 -64 -87 -81 -81 -6 2 -9 -3 -5 -12 6 -14 -5 -21
-28 -17 -5 0 -7 -5 -5 -11 1 -7 -5 -11 -13 -10 -8 2 -12 0 -7 -4 9 -10 -22
-44 -40 -44 -8 0 -12 -3 -10 -7 2 -5 -6 -18 -19 -31 -13 -12 -24 -19 -24 -15
-1 4 -7 -3 -15 -17 -7 -14 -15 -23 -18 -20 -2 3 -17 -11 -33 -30 -16 -19 -33
-37 -37 -38 -4 -2 -28 -24 -52 -48 -25 -24 -50 -44 -56 -44 -5 0 -7 -4 -4 -10
3 -5 -1 -10 -9 -10 -9 0 -16 -7 -16 -15 0 -8 -3 -15 -7 -15 -5 0 -16 -13 -25
-29 -15 -28 -15 -29 0 -23 15 5 15 4 3 -11 -9 -11 -10 -17 -2 -17 6 0 11 -5
11 -11 0 -5 -4 -7 -10 -4 -5 3 -10 2 -10 -3 0 -14 28 -23 35 -12 4 6 11 10 17
10 6 0 6 -7 -3 -17 -7 -10 1 -4 18 12 33 32 35 39 9 29 -9 -3 -13 -11 -9 -17
4 -6 1 -7 -6 -3 -19 12 19 46 39 35 12 -5 16 -2 17 14 2 17 0 19 -7 7 -6 -10
-10 -11 -10 -3 0 7 14 22 30 35 17 12 30 27 30 34 0 7 8 10 20 7 12 -3 20 0
20 6 0 7 -5 9 -12 5 -7 -4 -8 -3 -4 4 4 7 14 12 22 12 10 0 12 -5 8 -12 -6
-10 -5 -10 8 -1 8 7 19 9 23 5 5 -4 5 -1 1 6 -8 14 11 45 23 38 11 -7 36 12
27 21 -5 4 -11 2 -13 -5 -3 -6 -8 -10 -13 -7 -5 3 -17 -6 -28 -20 -11 -13 -22
-22 -25 -19 -7 7 38 54 52 54 7 0 10 4 6 9 -6 10 13 26 30 26 6 0 11 6 11 13
3 26 5 26 24 2 15 -18 18 -20 13 -6 -5 14 -3 17 7 11 9 -5 11 -4 6 4 -4 6 -12
9 -17 6 -5 -4 -9 -2 -9 3 0 6 7 13 16 16 8 3 12 10 9 16 -3 6 1 7 10 4 12 -5
16 -2 13 12 -2 10 2 19 7 20 21 2 45 17 40 25 -3 4 5 13 17 20 13 7 29 20 36
31 7 10 20 18 28 18 8 0 12 5 9 10 -3 6 -1 10 6 10 7 0 10 13 7 35 -4 39 -5
39 25 24 21 -10 21 -10 2 6 -10 8 -19 27 -20 40 0 32 -60 73 -69 49z"/>
<path d="M547 1715 c-4 -9 -11 -14 -16 -11 -5 3 -14 -1 -21 -9 -7 -8 -17 -12
-24 -8 -6 3 -8 3 -4 -2 4 -4 -10 -21 -32 -37 -23 -17 -37 -35 -34 -42 3 -8 -1
-13 -8 -13 -7 1 -14 -2 -15 -6 -1 -5 -9 -14 -19 -21 -13 -10 -14 -15 -4 -21 9
-6 11 -4 5 5 -6 10 -4 12 7 7 21 -8 30 3 17 20 -9 10 -8 13 7 10 11 -1 26 -7
34 -12 13 -8 13 -7 1 9 -12 14 -12 19 -2 26 11 6 11 9 0 13 -10 4 -9 6 4 6 9
1 17 7 17 14 0 8 4 7 10 -3 9 -13 12 -13 23 1 6 9 19 14 27 11 9 -3 8 1 -4 10
-13 10 -15 17 -8 22 7 4 12 2 12 -5 0 -6 9 -1 20 12 10 13 19 19 20 14 0 -6
-4 -16 -10 -23 -5 -7 -3 -6 6 2 12 10 14 19 7 31 -9 16 -10 16 -16 0z m-53
-60 c-4 -8 -11 -12 -16 -9 -6 4 -5 10 3 15 19 12 19 11 13 -6z"/>
<path d="M875 1690 c-4 -6 -11 -7 -17 -4 -6 4 -8 2 -5 -3 6 -10 -19 -28 -35
-25 -4 1 -5 -5 -2 -13 4 -10 0 -15 -12 -15 -16 0 -17 -2 -4 -10 12 -8 12 -10
1 -10 -10 0 -11 -3 -2 -13 6 -8 8 -17 4 -21 -4 -4 -9 -19 -11 -34 -2 -15 -8
-29 -13 -30 -6 -3 -5 -9 2 -18 9 -11 8 -14 -7 -14 -11 0 -15 -4 -9 -8 13 -9
18 -42 7 -42 -5 0 -8 -10 -7 -22 1 -13 -3 -26 -9 -30 -7 -5 -7 -8 2 -8 7 0 10
-4 7 -10 -7 -11 -17 -81 -18 -122 0 -16 -3 -28 -6 -28 -3 0 -7 -17 -7 -38 -1
-35 -8 -110 -20 -232 -3 -30 -5 -64 -5 -75 0 -11 -5 -23 -12 -27 -7 -4 -7 -8
-2 -8 8 0 13 -54 5 -62 -1 -2 -4 -37 -6 -77 -3 -41 -10 -82 -17 -90 -7 -9 -7
-12 -1 -8 7 4 11 -7 10 -33 -1 -27 -5 -39 -13 -36 -7 3 -15 1 -18 -5 -4 -5 -1
-8 7 -7 7 2 12 -3 11 -9 -2 -7 2 -13 8 -13 6 0 1 -9 -12 -20 -13 -11 -18 -19
-10 -18 7 2 16 -3 18 -9 3 -8 -3 -13 -14 -14 -16 0 -16 -1 2 -9 11 -5 15 -9 9
-9 -7 -1 -15 -8 -18 -17 -3 -8 -2 -13 3 -10 5 3 12 -1 15 -10 3 -8 2 -12 -3
-9 -18 10 -21 -13 -4 -26 12 -10 14 -10 9 -1 -4 6 -2 12 3 12 6 0 11 -4 11
-10 0 -5 5 -10 11 -10 8 0 7 5 -1 15 -7 9 -11 17 -9 18 2 1 14 11 27 21 25 22
30 15 6 -9 -13 -13 -14 -19 -5 -28 10 -9 12 -9 9 3 -2 8 3 14 9 13 7 -2 12 0
11 5 -1 4 1 23 5 42 6 27 10 32 17 20 6 -9 10 -10 10 -3 0 6 -5 15 -10 18 -8
5 -8 11 -1 19 6 7 8 16 4 20 -12 12 -14 48 -2 40 8 -5 8 -1 0 13 -6 11 -8 22
-6 25 2 2 7 40 10 84 3 43 7 104 9 134 2 30 4 70 5 88 1 24 5 31 14 26 9 -6 9
-4 1 7 -13 15 -13 57 -1 76 4 6 3 14 -2 18 -6 3 -8 12 -5 20 4 8 11 12 17 8 6
-4 7 -1 2 7 -11 17 -13 60 -3 60 3 0 5 12 2 27 -3 15 0 30 8 34 10 7 10 9 -1
9 -10 0 -10 5 3 25 9 14 13 25 8 25 -15 0 -10 34 7 48 9 8 11 11 5 8 -7 -3
-15 1 -18 10 -4 11 -2 15 7 11 8 -3 14 1 14 9 0 7 -3 11 -7 9 -4 -3 -5 10 -3
28 3 17 6 47 7 65 1 18 8 37 16 42 12 8 13 10 1 10 -11 0 -9 5 5 22 15 19 16
20 2 9 -11 -8 -18 -9 -18 -3 0 6 4 13 8 16 4 2 9 22 10 43 2 21 7 56 13 78 15
60 17 85 8 85 -4 0 -11 -5 -14 -10z"/>
<path d="M1526 1645 c-3 -8 -2 -14 2 -14 20 3 25 -2 12 -12 -13 -9 -13 -10 1
-6 11 4 21 -4 29 -21 7 -16 14 -22 17 -14 3 6 10 9 16 5 7 -3 8 -2 4 3 -5 5
-14 9 -19 9 -6 0 -13 6 -16 13 -2 8 2 10 15 5 10 -4 4 5 -13 20 -37 31 -40 32
-48 12z m35 -12 c13 -16 12 -17 -3 -4 -10 7 -18 15 -18 17 0 8 8 3 21 -13z"/>
<path d="M1426 1541 c-3 -5 1 -14 9 -21 10 -9 15 -9 15 -1 0 6 -5 11 -11 11
-5 0 -7 5 -4 10 3 6 4 10 1 10 -3 0 -7 -4 -10 -9z"/>
<path d="M337 1522 c4 -9 2 -13 -4 -9 -6 4 -19 -3 -29 -15 -11 -12 -14 -18 -7
-15 6 4 13 1 16 -5 2 -7 8 -9 13 -5 5 4 2 12 -6 17 -14 9 -7 14 13 11 4 -1 10
6 13 14 5 13 9 13 23 3 13 -10 14 -10 4 2 -18 20 -43 22 -36 2z"/>
<path d="M1410 1511 c0 -6 -3 -10 -7 -10 -20 3 -30 -2 -30 -16 0 -15 26 -30
35 -20 3 3 0 5 -6 5 -7 0 -12 7 -12 16 0 8 4 13 8 10 4 -2 14 -1 21 3 9 6 10
11 2 15 -6 4 -11 2 -11 -3z"/>
<path d="M1670 1489 c-13 -10 -13 -10 0 -6 19 6 45 -19 27 -26 -9 -4 -9 -6 0
-6 21 -2 23 16 5 32 -13 12 -21 13 -32 6z"/>
<path d="M283 1462 c-8 -5 -6 -14 8 -32 17 -21 19 -22 10 -3 -14 28 -14 36 1
27 7 -4 8 -3 4 4 -8 14 -8 14 -23 4z"/>
<path d="M1345 1459 c-4 -5 -11 -6 -17 -3 -7 5 -8 2 -4 -5 5 -7 0 -22 -11 -34
-10 -12 -11 -16 -3 -10 8 6 20 13 25 14 6 2 9 10 7 17 -2 8 1 12 5 9 5 -3 15
-2 22 2 10 6 9 10 -3 14 -8 3 -18 2 -21 -4z"/>
<path d="M1724 1433 c2 -9 8 -18 15 -19 6 -1 7 0 1 3 -5 2 -8 9 -5 13 3 5 1
11 -4 14 -5 4 -8 -2 -7 -11z"/>
<path d="M251 1406 c-18 -20 -20 -24 -7 -29 9 -3 18 -1 22 5 4 7 3 8 -4 4 -17
-11 -14 5 5 26 24 27 10 22 -16 -6z"/>
<path d="M223 1352 c-7 -12 -8 -24 -2 -33 8 -11 9 -9 7 6 -2 11 2 19 9 18 7
-2 10 4 7 12 -8 19 -7 19 -21 -3z"/>
<path d="M1245 1360 c-4 -6 -10 -8 -15 -5 -5 3 -12 0 -16 -7 -4 -7 -4 -10 1
-6 4 4 14 3 22 -4 11 -9 13 -8 11 3 -2 8 3 13 10 11 8 -1 11 2 7 8 -8 13 -12
13 -20 0z"/>
<path d="M1761 1351 c-8 -5 -9 -11 -3 -15 5 -3 12 1 16 9 6 17 6 18 -13 6z"/>
<path d="M1797 1271 c-4 -17 -3 -21 5 -13 5 5 8 16 6 23 -3 8 -7 3 -11 -10z"/>
<path d="M186 1263 c-6 -14 -5 -15 5 -6 7 7 10 15 7 18 -3 3 -9 -2 -12 -12z"/>
<path d="M1100 1220 c0 -5 5 -10 11 -10 5 0 7 5 4 10 -3 6 -8 10 -11 10 -2 0
-4 -4 -4 -10z"/>
<path d="M1130 1219 c0 -5 5 -7 10 -4 6 3 10 8 10 11 0 2 -4 4 -10 4 -5 0 -10
-5 -10 -11z"/>
<path d="M1080 1199 c0 -5 -4 -8 -9 -4 -5 3 -12 2 -15 -3 -2 -4 6 -8 19 -8 15
0 21 5 18 13 -6 16 -13 17 -13 2z"/>
<path d="M930 940 c-8 -5 -11 -10 -6 -10 5 0 4 -6 -2 -13 -6 -7 -7 -18 -3 -26
5 -7 6 -22 3 -33 -3 -11 0 -23 5 -27 32 -19 123 -105 123 -115 0 -6 -9 0 -20
14 -11 14 -20 19 -20 12 0 -7 -5 -10 -11 -6 -8 5 -8 9 1 14 8 5 8 9 -3 13 -16
6 -17 -9 -4 -30 5 -7 5 -19 2 -25 -4 -7 0 -5 8 4 8 10 17 15 20 11 4 -3 2 -12
-4 -20 -9 -9 -8 -13 0 -13 6 0 11 4 11 9 0 14 38 7 59 -11 11 -9 23 -13 28
-10 4 4 5 3 1 -1 -6 -8 26 -47 37 -47 14 1 33 -29 31 -50 0 -13 5 -25 12 -27
6 -3 12 0 12 7 0 6 -4 9 -8 6 -5 -3 -9 1 -9 9 0 17 52 -17 70 -46 7 -11 17
-19 24 -19 6 0 15 -9 18 -20 4 -11 10 -18 15 -15 5 3 11 1 14 -4 4 -5 1 -13
-5 -17 -8 -5 -9 -3 -4 6 5 9 4 11 -4 6 -6 -4 -14 -1 -17 8 -3 8 -13 12 -22 9
-15 -4 -15 -3 -2 7 13 10 13 11 -2 6 -16 -5 -23 4 -19 26 0 4 -6 5 -15 1 -9
-3 -20 0 -25 8 -7 11 -9 11 -9 1 0 -8 9 -16 20 -19 10 -3 22 -14 25 -24 4 -10
15 -19 26 -19 11 0 17 -5 14 -10 -4 -6 -1 -9 7 -8 7 2 12 -3 10 -10 -1 -8 1
-11 6 -8 9 5 36 -21 40 -39 1 -5 10 -10 21 -11 10 -1 35 -11 55 -23 20 -13 36
-20 36 -18 0 3 -17 16 -37 28 -21 13 -42 29 -46 36 -5 7 -13 10 -19 7 -7 -5
-8 -2 -3 6 6 9 4 11 -5 5 -9 -6 -11 -4 -5 5 5 8 4 11 -3 6 -6 -3 -13 -2 -17 4
-12 19 21 10 45 -12 14 -13 29 -21 35 -20 5 2 7 0 3 -4 -11 -10 62 -59 89 -59
21 -1 22 0 5 19 -12 13 -13 20 -5 23 17 6 -5 63 -24 63 -8 0 -11 5 -8 10 3 6
1 10 -6 10 -6 0 -19 8 -28 18 -9 10 -29 27 -44 37 -15 10 -26 24 -23 31 3 8 0
11 -10 7 -9 -3 -14 1 -14 13 0 15 -2 16 -9 5 -7 -11 -10 -9 -16 8 -4 13 -9 20
-11 18 -7 -7 -79 64 -77 74 2 5 -3 8 -10 6 -6 -1 -11 4 -9 11 1 8 -2 11 -6 8
-14 -9 -55 31 -46 45 4 8 3 9 -5 5 -15 -10 -43 13 -34 27 3 5 1 7 -4 4 -6 -4
-36 17 -67 46 -31 30 -58 52 -61 49 -5 -5 -8 12 -6 38 0 10 -1 11 -5 3 -4 -10
-11 -10 -25 -2 -11 5 -17 14 -14 20 8 11 4 11 -15 -1z m450 -540 c0 -5 -5 -10
-11 -10 -5 0 -7 5 -4 10 3 6 8 10 11 10 2 0 4 -4 4 -10z"/>
<path d="M901 844 c0 -11 3 -14 6 -6 3 7 2 16 -1 19 -3 4 -6 -2 -5 -13z"/>
<path d="M915 810 c-4 -6 1 -7 11 -3 11 4 15 3 10 -5 -3 -6 3 -13 14 -17 17
-5 18 -10 9 -28 -10 -21 -9 -21 5 -3 14 17 13 21 -7 42 -24 26 -33 29 -42 14z"/>
<path d="M1054 689 c-7 -12 6 -23 22 -19 3 1 14 -9 25 -21 10 -12 22 -19 26
-16 3 4 4 8 2 10 -2 1 -18 15 -35 30 -24 21 -34 25 -40 16z"/>
<path d="M1117 603 c5 -12 7 -12 14 -2 6 10 11 10 23 0 11 -9 16 -10 16 -2 0
11 -1 12 -37 16 -15 2 -20 -2 -16 -12z"/>
<path d="M1226 545 c4 -8 11 -15 16 -15 6 0 5 6 -2 15 -7 8 -14 15 -16 15 -2
0 -1 -7 2 -15z"/>
<path d="M606 378 c3 -5 10 -6 15 -3 13 9 11 12 -6 12 -8 0 -12 -4 -9 -9z"/>
<path d="M1530 381 c0 -6 4 -13 10 -16 6 -3 7 1 4 9 -7 18 -14 21 -14 7z"/>
<path d="M1470 307 c-12 -21 -12 -21 6 -7 10 8 20 15 22 16 2 1 -1 4 -5 7 -5
3 -15 -4 -23 -16z"/>
<path d="M1235 209 c-4 -6 -5 -12 -2 -15 2 -3 7 2 10 11 7 17 1 20 -8 4z"/>
<path d="M875 160 c-3 -5 -1 -10 4 -10 6 0 11 5 11 10 0 6 -2 10 -4 10 -3 0
-8 -4 -11 -10z"/>
<path d="M1589 213 c-12 -16 -12 -17 2 -6 9 7 20 9 24 5 5 -4 5 -1 1 6 -9 16
-11 15 -27 -5z"/>
<path d="M6 878 c3 -5 10 -6 15 -3 13 9 11 12 -6 12 -8 0 -12 -4 -9 -9z"/>
<path d="M1960 760 c-9 -6 -10 -10 -3 -10 6 0 15 5 18 10 8 12 4 12 -15 0z"/>
<path d="M1933 641 c0 -11 5 -18 9 -15 4 3 5 11 1 19 -7 21 -12 19 -10 -4z"/>
<path d="M1886 564 c-19 -19 -21 -31 -3 -15 8 6 16 9 19 6 2 -3 5 2 5 10 0 19
-2 19 -21 -1z"/>
<path d="M1856 514 c-8 -20 -8 -24 2 -24 4 0 8 9 9 20 2 24 -3 26 -11 4z"/>
<path d="M134 498 c-4 -7 -4 -10 1 -6 4 4 14 0 22 -10 13 -15 13 -15 3 6 -12
25 -16 27 -26 10z"/>
<path d="M1826 464 c-17 -16 -13 -34 7 -34 8 0 8 3 -2 9 -9 6 -10 11 -2 15 6
4 15 4 21 1 6 -3 7 1 4 9 -8 20 -9 20 -28 0z"/>
<path d="M1795 419 c-5 -8 -4 -10 3 -5 8 5 12 -1 13 -16 1 -18 2 -19 6 -4 6
23 -12 43 -22 25z"/>
<path d="M170 399 c0 -5 5 -7 10 -4 6 3 10 8 10 11 0 2 -4 4 -10 4 -5 0 -10
-5 -10 -11z"/>
<path d="M205 390 c-19 -8 -19 -9 -1 -9 16 -1 17 -3 5 -18 -11 -15 -11 -16 0
-6 16 13 41 7 37 -10 -1 -7 -1 -9 1 -4 3 4 10 5 16 1 7 -3 1 4 -13 17 -14 12
-24 26 -22 30 2 10 3 10 -23 -1z"/>
<path d="M1746 355 c-9 -26 -7 -32 5 -12 6 10 9 21 6 23 -2 3 -7 -2 -11 -11z"/>
<path d="M1715 330 c-4 -6 -3 -16 3 -22 13 -13 23 4 13 21 -7 10 -10 10 -16 1z"/>
<path d="M310 251 c0 -15 18 -23 25 -12 3 6 13 7 23 4 9 -3 14 -3 11 1 -11 11
-59 17 -59 7z"/>
<path d="M1655 220 c-3 -6 1 -7 9 -4 18 7 21 14 7 14 -6 0 -13 -4 -16 -10z"/>
<path d="M463 149 c-2 -17 13 -24 40 -20 4 0 7 -4 7 -9 0 -5 5 -10 11 -10 8 0
9 4 0 13 -6 8 -7 17 -3 21 4 4 3 6 -3 5 -5 -2 -19 2 -30 8 -18 10 -21 9 -22
-8z m32 -9 c3 -6 -1 -7 -9 -4 -18 7 -21 14 -7 14 6 0 13 -4 16 -10z"/>
<path d="M587 83 c-3 -5 3 -15 15 -22 15 -9 18 -9 13 0 -5 7 -3 10 6 7 8 -3
13 -10 12 -15 -1 -6 12 -9 29 -7 25 3 28 1 19 -10 -9 -11 -9 -16 0 -22 7 -4 9
-3 5 4 -3 5 -2 12 3 14 5 1 11 9 13 17 2 10 -7 15 -28 16 -17 0 -39 7 -48 14
-13 11 -16 11 -16 0 0 -12 -2 -12 -9 0 -5 7 -11 9 -14 4z"/>
</g>
</svg>
