<?xml version="1.0" standalone="no"?>
<!DOCTYPE svg PUBLIC "-//W3C//DTD SVG 20010904//EN"
 "http://www.w3.org/TR/2001/REC-SVG-20010904/DTD/svg10.dtd">
<svg version="1.0" xmlns="http://www.w3.org/2000/svg"
 width="250.000000pt" height="250.000000pt" viewBox="0 0 250.000000 250.000000"
 preserveAspectRatio="xMidYMid meet">
<metadata>
Created by potrace 1.14, written by Peter Selinger 2001-2017
</metadata>
<g transform="translate(0.000000,250.000000) scale(0.100000,-0.100000)"
fill="#000000" stroke="none">
<path d="M1310 2496 c0 -2 8 -10 18 -17 15 -13 16 -12 3 4 -13 16 -21 21 -21
13z"/>
<path d="M999 2488 c-5 -18 -6 -38 -1 -34 7 8 12 36 6 36 -2 0 -4 -1 -5 -2z"/>
<path d="M1397 2484 c-3 -3 -3 -13 0 -22 5 -11 3 -13 -7 -7 -7 5 -40 7 -73 6
-47 -2 -57 0 -51 11 6 11 5 11 -9 0 -10 -9 -36 -13 -74 -11 -32 2 -64 0 -72
-5 -8 -5 -16 -4 -22 5 -6 10 -9 11 -9 2 0 -7 -5 -13 -11 -13 -5 0 -8 4 -4 9 3
5 1 13 -5 16 -6 4 -10 3 -9 -2 4 -21 -3 -31 -18 -28 -10 1 -23 -2 -29 -7 -7
-5 -16 -8 -20 -7 -5 2 -28 -3 -52 -10 -23 -6 -48 -9 -54 -5 -6 4 -8 3 -5 -3 4
-6 0 -14 -9 -17 -10 -4 -13 -2 -9 7 4 6 0 4 -9 -7 -8 -10 -19 -15 -25 -12 -5
4 -12 2 -16 -4 -4 -6 -11 -8 -16 -5 -5 4 -9 1 -9 -5 0 -6 -4 -9 -9 -5 -5 3
-13 0 -17 -6 -4 -8 -9 -7 -15 2 -7 11 -9 10 -9 -5 0 -12 -5 -16 -16 -12 -8 3
-13 2 -10 -3 7 -11 -43 -33 -56 -25 -6 4 -8 2 -4 -4 3 -6 -7 -16 -24 -24 -16
-7 -30 -17 -30 -22 0 -4 -8 -5 -17 -2 -10 4 -14 4 -10 0 3 -4 -6 -18 -21 -30
-26 -23 -37 -28 -54 -25 -5 0 -7 -2 -6 -7 4 -11 -35 -52 -49 -52 -7 0 -13 -7
-13 -17 0 -9 -3 -14 -6 -10 -8 7 -34 -17 -34 -32 0 -6 -7 -7 -17 -4 -11 4 -14
3 -9 -5 4 -7 -4 -24 -18 -39 -15 -15 -26 -32 -26 -37 0 -4 -9 -6 -21 -3 -15 4
-18 2 -10 -7 10 -11 5 -19 -48 -82 -5 -7 -7 -15 -4 -18 4 -3 1 -6 -6 -6 -7 0
-9 -4 -6 -10 3 -5 1 -10 -4 -10 -6 0 -11 -7 -11 -15 0 -9 -6 -18 -13 -21 -8
-3 -14 -10 -14 -17 -1 -24 -40 -97 -48 -89 -5 4 -5 2 -2 -5 4 -6 -1 -31 -12
-55 -10 -24 -22 -63 -26 -86 -4 -23 -10 -40 -14 -38 -4 3 -7 -5 -6 -17 1 -12
-4 -43 -11 -69 -7 -27 -10 -48 -7 -48 3 0 1 -6 -5 -13 -7 -8 -7 -18 -2 -27 5
-8 6 -19 2 -25 -4 -5 -7 -53 -7 -105 0 -74 -3 -94 -13 -92 -8 1 -11 -2 -7 -8
3 -6 11 -7 17 -4 7 5 9 1 5 -9 -4 -10 -2 -17 5 -17 6 0 5 -6 -3 -17 -8 -9 -9
-14 -3 -10 7 4 11 -2 10 -16 -1 -12 1 -26 5 -32 4 -5 8 -13 8 -17 1 -5 1 -9 2
-10 6 -20 6 -37 -1 -33 -4 3 -10 -2 -13 -9 -4 -10 0 -14 13 -11 13 3 17 -1 13
-11 -3 -8 0 -21 7 -29 10 -12 10 -18 0 -30 -7 -8 -9 -15 -4 -15 4 0 0 -6 -11
-13 -14 -11 -15 -16 -5 -22 8 -5 11 -4 7 2 -4 6 0 14 9 17 8 3 12 11 8 17 -4
8 -3 9 5 5 7 -4 10 -13 8 -19 -2 -7 2 -18 10 -25 7 -8 10 -18 7 -23 -3 -6 2
-17 12 -24 11 -8 16 -15 11 -15 -4 0 -1 -14 8 -30 9 -17 12 -30 8 -30 -5 0 -1
-5 7 -10 8 -5 16 -14 16 -20 1 -5 2 -14 3 -20 0 -5 11 -18 23 -30 12 -11 18
-20 14 -20 -9 0 32 -61 52 -78 10 -7 11 -12 4 -12 -7 0 -6 -7 5 -19 9 -11 21
-17 27 -14 6 3 8 3 4 -2 -4 -4 0 -14 8 -22 8 -9 13 -22 10 -29 -3 -7 0 -16 6
-20 7 -4 8 -3 4 4 -4 7 -3 12 2 12 6 0 13 -7 16 -16 3 -9 11 -12 18 -8 7 4 10
4 6 -1 -4 -4 4 -16 17 -27 16 -12 22 -25 18 -36 -6 -15 -5 -15 10 -3 9 7 18
11 18 7 1 -3 2 -12 3 -18 1 -7 7 -12 14 -11 6 2 9 -4 6 -12 -5 -11 -1 -14 12
-9 11 3 15 2 8 -3 -18 -13 -36 -53 -24 -53 5 0 10 6 10 14 0 23 17 28 33 11
17 -17 31 -20 22 -5 -3 6 1 7 10 3 13 -5 14 -7 3 -14 -7 -5 -8 -9 -3 -10 6 -1
15 -2 20 -3 21 -3 20 -33 -1 -33 -14 0 -14 2 2 14 10 7 13 13 8 13 -6 0 -16
-6 -23 -12 -11 -11 -12 -10 -6 1 6 10 4 12 -5 6 -9 -5 -11 -4 -6 3 4 7 2 12
-3 12 -15 0 -13 -11 4 -34 7 -10 18 -15 23 -12 5 3 19 -2 32 -11 21 -15 21
-17 6 -28 -15 -12 -15 -13 0 -19 9 -4 19 -4 22 -1 3 3 0 5 -7 5 -7 0 -9 5 -6
10 5 8 11 7 21 -1 7 -6 12 -14 9 -18 -2 -4 6 -7 17 -6 30 2 34 22 6 31 -13 4
-26 7 -30 6 -4 -1 -5 6 -2 16 5 13 4 14 -4 3 -7 -9 -12 -10 -16 -2 -4 6 -2 11
4 11 6 0 8 5 4 11 -4 8 -9 7 -15 -2 -6 -10 -9 -10 -9 -2 0 16 17 26 25 13 4
-6 11 -7 17 -4 6 4 8 3 5 -2 -3 -6 -1 -16 4 -24 8 -13 10 -13 19 0 5 8 10 10
10 4 0 -5 12 -15 28 -22 18 -7 20 -10 5 -6 -17 4 -21 1 -18 -8 3 -8 21 -15 40
-16 61 -3 66 -5 55 -16 -19 -19 -10 -29 10 -11 20 18 21 18 14 -1 -7 -17 -6
-17 9 -5 16 12 17 12 11 -5 -4 -10 -4 -16 1 -12 4 4 15 2 23 -5 13 -10 15 -9
9 6 -5 14 -3 16 12 8 10 -6 21 -7 25 -4 3 3 6 1 6 -6 0 -8 -7 -11 -17 -7 -15
5 -15 4 1 -9 17 -13 21 -13 33 3 12 16 12 15 6 -3 -6 -17 -5 -18 9 -7 9 8 19
9 22 4 3 -6 -1 -15 -8 -21 -9 -7 -17 -8 -20 -2 -3 5 -17 8 -31 7 -15 -2 -22 1
-18 8 3 6 0 5 -8 -2 -12 -11 -12 -14 1 -22 8 -6 21 -8 27 -5 7 2 13 -3 14 -13
0 -14 2 -14 7 -2 7 15 24 23 55 24 9 0 17 4 17 8 0 4 5 8 12 8 6 0 8 -3 5 -7
-4 -3 -1 -13 6 -21 10 -13 9 -14 -3 -7 -22 14 -48 16 -55 6 -9 -15 15 -24 30
-11 9 8 15 8 20 0 11 -17 60 -6 57 14 -2 9 2 16 8 16 5 0 9 -3 9 -7 -4 -28 9
-29 244 -26 207 2 329 6 346 12 3 0 -4 7 -15 15 -14 11 -23 12 -34 3 -12 -9
-13 -9 -2 3 6 8 12 19 12 24 0 6 -5 3 -11 -6 -5 -10 -19 -23 -31 -29 -13 -7
-18 -7 -14 -1 3 6 2 13 -4 17 -9 6 -14 -8 -11 -28 1 -5 -3 -6 -9 -2 -6 3 -8
12 -4 18 3 7 -2 3 -10 -7 -9 -11 -16 -15 -16 -10 0 6 -18 10 -40 10 -22 0 -34
-3 -27 -8 6 -4 -5 -6 -26 -5 -37 2 -52 15 -19 17 9 0 34 1 55 2 20 1 37 5 37
9 0 4 9 6 20 4 11 -2 20 0 20 4 0 5 16 7 36 5 28 -2 33 0 25 10 -17 20 23 14
44 -7 9 -10 21 -15 26 -12 8 6 13 -9 10 -28 -1 -5 3 -6 8 -2 6 3 8 11 5 18 -2
7 4 13 16 14 11 1 18 -2 15 -7 -3 -6 1 -7 10 -4 14 6 14 8 -2 20 -16 11 -15
13 15 12 18 -1 35 2 39 5 3 4 -1 7 -11 7 -9 0 -15 4 -11 9 3 5 0 13 -6 17 -8
4 -9 3 -5 -4 6 -11 -5 -16 -20 -9 -3 1 -11 -9 -18 -22 -12 -21 -14 -21 -20 -6
-6 17 -7 17 -20 0 -9 -13 -15 -15 -20 -7 -4 7 -4 12 1 12 4 0 1 5 -7 11 -12 8
-10 9 9 4 17 -5 22 -4 16 5 -5 8 -4 11 3 6 5 -3 13 0 15 6 4 10 6 10 6 1 1 -7
6 -13 12 -13 5 0 7 6 3 13 -5 7 0 6 11 -3 17 -14 18 -13 12 2 -5 13 -1 16 20
12 24 -5 25 -3 12 13 -13 16 -12 17 3 5 9 -8 14 -20 11 -29 -4 -11 -2 -14 8
-11 8 3 22 1 31 -4 14 -7 16 -5 11 9 -6 16 -5 17 13 3 18 -14 18 -14 4 4 -14
18 -13 19 2 14 11 -5 15 -2 14 10 -2 9 -9 18 -17 20 -11 3 -11 1 1 -7 12 -8
11 -10 -8 -8 -12 0 -22 5 -22 10 0 4 -5 5 -11 1 -6 -3 -7 -9 -3 -13 14 -10 14
-28 0 -28 -13 0 -15 31 -3 44 11 10 50 12 69 2 10 -5 15 -17 13 -29 -2 -12 0
-18 6 -15 5 4 7 10 4 15 -3 5 3 14 12 20 16 10 16 11 1 6 -17 -5 -31 7 -34 32
-1 6 2 10 7 6 5 -3 7 -10 3 -15 -9 -15 63 -4 83 12 9 8 28 24 41 36 14 13 28
21 31 19 4 -3 8 5 8 17 2 18 0 19 -8 7 -8 -11 -9 -9 -4 9 6 18 4 22 -6 16 -8
-5 -6 1 5 13 10 12 22 20 26 17 4 -2 17 9 28 25 15 20 27 27 39 23 10 -4 14
-2 10 4 -8 13 22 55 34 48 5 -4 9 0 9 8 0 8 9 22 20 32 11 10 18 21 15 23 -10
11 47 60 64 56 14 -4 14 -4 0 7 -14 10 -13 14 8 37 13 14 23 31 23 39 0 8 4
12 8 9 15 -9 51 23 49 43 -1 11 -5 18 -9 15 -4 -3 -5 -11 -2 -18 5 -13 -24
-31 -34 -21 -3 3 0 5 7 5 7 0 10 4 6 9 -3 5 0 13 6 16 9 6 47 81 54 108 2 4 3
8 5 10 1 1 3 9 5 18 7 35 17 59 25 59 5 0 7 9 5 20 -2 11 1 23 7 26 7 5 8 2 3
-6 -5 -9 -4 -11 4 -6 9 6 9 11 1 21 -7 8 -8 19 -4 26 4 8 11 2 20 -17 7 -16
13 -24 13 -19 1 6 -6 23 -14 39 -9 16 -12 32 -9 35 4 3 9 0 11 -6 3 -7 9 -13
15 -13 7 0 7 4 0 13 -9 10 -7 20 4 38 l16 24 -21 -23 c-19 -22 -20 -22 -18 -2
1 11 6 20 11 20 5 0 6 3 3 7 -4 3 -1 13 6 21 10 13 9 14 -1 8 -19 -11 -12 25
8 42 8 8 9 11 3 7 -9 -4 -13 2 -13 20 0 14 4 24 8 21 5 -3 9 1 9 9 0 8 -4 12
-7 10 -12 -8 -8 50 4 57 7 5 7 8 -3 8 -11 0 -11 3 0 17 8 10 9 14 2 10 -8 -5
-12 4 -11 32 0 21 -3 44 -6 50 -4 6 -2 11 4 11 6 0 8 5 3 13 -4 6 -8 18 -10
26 -1 8 -4 26 -8 39 -4 16 -2 21 6 17 6 -4 4 3 -4 16 -8 13 -14 36 -13 51 1
14 -2 24 -6 22 -7 -5 -13 19 -9 40 1 5 -3 12 -9 16 -6 4 -12 20 -13 37 -1 17
-5 29 -9 26 -5 -2 -8 4 -8 14 0 10 -7 29 -16 41 -12 17 -12 22 -2 22 8 0 6 5
-4 11 -10 5 -18 17 -18 24 0 8 -4 15 -10 15 -5 0 -10 7 -10 16 0 8 -7 22 -16
31 -8 9 -13 22 -10 30 3 8 1 11 -4 8 -6 -3 -10 -1 -10 6 0 6 -8 18 -17 25 -10
7 -18 16 -18 21 0 10 -47 73 -77 104 -9 10 -14 20 -10 23 3 3 -1 6 -9 6 -14 0
-45 39 -41 52 1 4 -6 4 -15 1 -13 -5 -15 -2 -10 11 4 9 3 15 -1 12 -5 -3 -21
6 -38 19 l-29 23 20 24 20 23 -26 -23 c-15 -13 -28 -20 -30 -15 -2 5 -19 19
-37 32 -19 13 -31 29 -28 37 3 7 0 16 -6 20 -6 4 -8 3 -4 -4 10 -16 -11 -24
-26 -9 -7 7 -21 16 -31 20 -10 4 -16 11 -13 16 3 5 -3 7 -14 4 -14 -4 -20 0
-20 10 0 9 -4 19 -10 22 -6 4 -7 -1 -3 -10 5 -15 3 -15 -15 -4 -11 7 -19 15
-17 19 2 3 -8 6 -22 7 -14 0 -39 11 -56 23 -16 13 -27 18 -24 13 3 -5 -17 -2
-46 8 -39 14 -51 22 -49 36 2 16 2 16 -8 1 -9 -15 -30 -16 -70 -1 -8 4 -23 5
-34 4 -10 -2 -16 1 -13 6 3 5 -7 7 -24 5 -27 -4 -34 3 -30 31 1 9 -4 9 -12 1z
m-153 -174 c4 0 5 4 2 8 -3 6 68 9 82 3 1 -1 5 -1 10 -2 4 0 15 -8 25 -16 19
-18 23 -4 5 17 -11 12 -10 12 2 3 8 -6 26 -9 40 -7 14 1 19 0 13 -2 -7 -3 -13
-13 -13 -21 0 -9 -6 -13 -15 -10 -8 4 -17 2 -20 -3 -4 -6 -12 -10 -18 -10 -8
0 -8 3 2 9 8 5 9 11 3 15 -5 3 -15 -1 -22 -9 -10 -12 -10 -15 1 -17 8 0 19 -2
24 -2 22 -3 34 -17 30 -36 -2 -12 0 -18 6 -15 5 4 7 10 4 15 -9 15 14 21 36 9
17 -8 20 -8 14 1 -5 8 -3 11 6 8 8 -3 13 -11 11 -17 -1 -7 2 -10 8 -6 5 3 10
1 10 -6 0 -7 3 -9 6 -6 4 4 1 13 -6 22 -8 9 -8 15 -2 15 6 0 14 -5 17 -10 4
-6 15 -8 25 -5 10 3 21 1 25 -5 4 -6 1 -9 -6 -8 -6 2 -13 -3 -14 -10 -2 -7 -1
-8 1 -3 3 6 12 7 20 4 8 -3 14 0 14 7 0 6 5 8 10 5 8 -5 7 -11 -1 -21 -8 -10
-8 -14 0 -14 6 0 11 5 11 11 0 8 6 7 17 -2 14 -12 16 -12 9 0 -6 9 -5 12 5 9
8 -3 13 -14 13 -26 -1 -12 3 -19 7 -16 5 3 7 9 4 14 -3 5 4 8 15 7 22 -1 27
-13 8 -20 -7 -3 -3 -4 8 -4 15 1 20 6 16 17 -5 13 -3 13 11 1 10 -8 20 -11 24
-7 3 3 0 6 -7 6 -7 0 -10 3 -7 6 4 4 14 1 24 -7 15 -12 16 -12 10 3 -3 10 -1
20 5 24 7 5 8 2 3 -6 -6 -10 -4 -12 10 -6 15 5 16 4 5 -9 -12 -14 -10 -15 13
-11 15 3 27 1 27 -4 0 -12 -30 -21 -43 -13 -18 11 -37 12 -37 2 0 -5 5 -10 10
-10 6 -1 15 -2 21 -3 6 0 17 -9 24 -20 15 -20 37 -13 28 9 -4 11 1 14 18 11
17 -2 23 -9 21 -22 -3 -16 -2 -16 13 -4 14 12 18 12 25 -1 5 -8 15 -14 22 -14
7 0 13 -4 13 -10 0 -5 4 -16 9 -24 7 -11 10 -11 18 0 8 11 9 10 4 -3 -3 -10
-1 -20 4 -23 6 -4 10 -1 10 6 0 7 6 5 14 -6 15 -21 10 -58 -8 -48 -6 4 -3 -4
6 -19 13 -20 14 -28 5 -39 -7 -7 -3 -6 9 4 27 23 33 22 28 -5 -4 -20 -3 -21 4
-4 6 14 11 16 16 7 4 -6 2 -19 -6 -28 -12 -15 -11 -15 9 -3 15 10 19 18 12 26
-6 8 -5 13 5 17 11 4 13 1 9 -10 -5 -12 -3 -14 8 -8 8 5 3 -4 -11 -20 -14 -16
-20 -25 -13 -22 6 4 13 2 15 -5 3 -8 9 -8 22 -1 13 7 15 13 7 17 -6 4 -11 2
-11 -4 0 -6 -5 -8 -11 -4 -8 4 -6 10 6 17 14 7 20 5 29 -9 6 -11 11 -23 11
-29 1 -5 7 -9 14 -7 7 1 10 -2 6 -8 -3 -5 -1 -10 5 -10 6 0 8 -4 5 -10 -3 -5
-2 -10 2 -10 5 0 17 -13 26 -29 14 -24 15 -32 5 -38 -7 -4 -20 -17 -28 -28
-10 -15 -7 -14 13 4 27 24 27 24 42 5 8 -10 15 -22 16 -26 1 -5 2 -11 3 -15 1
-5 7 -18 14 -30 9 -16 9 -24 0 -29 -7 -4 -8 -3 -4 4 4 7 3 12 -2 12 -5 0 -9
-11 -9 -24 0 -22 1 -23 14 -10 20 20 29 18 12 -3 -12 -15 -12 -16 3 -11 12 5
16 1 13 -18 -1 -13 1 -24 5 -24 4 0 10 -11 12 -25 4 -16 0 -25 -11 -28 -10 -3
-8 -5 7 -6 26 -1 27 -9 5 -41 l-17 -25 22 19 c20 18 21 18 19 -2 0 -11 -5 -18
-9 -16 -4 3 -8 0 -8 -5 0 -6 6 -11 13 -11 7 0 13 -9 14 -20 1 -11 -2 -18 -6
-16 -4 3 -8 -1 -8 -9 0 -8 4 -12 9 -9 4 3 8 -7 9 -23 1 -15 3 -52 5 -81 4 -42
2 -52 -8 -46 -9 6 -9 3 1 -9 11 -14 11 -17 0 -17 -9 0 -10 -3 -4 -8 6 -4 10
-13 9 -19 -1 -7 -2 -31 -3 -54 -1 -35 -4 -40 -18 -35 -16 6 -16 5 0 -8 10 -8
14 -17 8 -20 -5 -3 -8 -18 -6 -32 2 -20 -1 -24 -14 -19 -12 5 -13 4 -4 -6 9
-9 9 -17 1 -33 -6 -12 -11 -22 -10 -23 8 -11 0 -33 -10 -27 -7 4 -8 3 -4 -5 8
-13 -13 -82 -29 -93 -5 -4 -10 -13 -11 -20 -3 -38 -5 -40 -26 -35 -21 5 -21 5
-5 -7 16 -13 16 -15 -4 -40 -11 -14 -17 -26 -12 -26 4 0 -1 -7 -11 -15 -11 -8
-17 -15 -13 -15 8 0 -6 -19 -37 -50 -11 -11 -17 -20 -13 -20 4 0 -1 -8 -11
-18 -9 -10 -26 -30 -37 -45 -11 -15 -26 -25 -33 -22 -7 3 -10 0 -6 -6 8 -13
-55 -71 -69 -62 -6 3 -7 2 -4 -4 7 -10 -72 -80 -85 -75 -5 1 -8 -2 -8 -7 0 -6
-9 -8 -19 -6 -15 3 -18 -1 -14 -12 5 -12 1 -14 -18 -8 -18 5 -21 4 -9 -4 13
-10 8 -15 -12 -12 -5 0 -8 -3 -8 -8 0 -5 -11 -12 -25 -15 -14 -4 -25 -11 -25
-17 0 -6 -4 -8 -9 -4 -5 3 -12 1 -16 -5 -4 -6 -11 -8 -16 -5 -5 4 -9 1 -9 -6
0 -7 -3 -9 -7 -6 -3 4 -13 1 -21 -6 -13 -10 -15 -9 -9 6 4 11 3 16 -3 12 -6
-3 -10 -13 -10 -21 0 -12 -19 -18 -57 -17 -7 1 -13 -3 -13 -7 0 -9 -49 -20
-102 -23 -21 -1 -38 -6 -38 -10 0 -4 -15 -8 -32 -8 -249 -5 -308 -1 -326 20
-8 9 -11 10 -7 3 8 -16 -7 -16 -24 0 -11 10 -13 10 -7 1 11 -19 -5 -16 -21 5
-8 9 -12 11 -8 5 3 -7 1 -13 -4 -13 -6 0 -11 3 -11 8 0 4 -12 8 -26 9 -15 0
-29 5 -33 10 -3 4 -12 8 -18 9 -39 3 -44 5 -37 15 4 8 -1 9 -16 4 -19 -6 -22
-4 -16 10 5 15 4 16 -8 6 -12 -10 -18 -9 -33 6 -10 10 -28 19 -38 21 -30 5
-85 45 -85 62 0 13 -1 13 -10 0 -5 -8 -10 -10 -10 -5 0 6 -13 16 -30 22 -18 7
-30 18 -30 30 0 15 -2 16 -10 3 -8 -13 -10 -13 -10 2 0 9 -9 20 -20 23 -22 7
-26 21 -8 27 7 3 5 7 -6 11 -10 4 -15 3 -11 -3 14 -23 -9 -7 -46 31 -22 23
-36 46 -32 52 3 7 3 9 -1 5 -10 -8 -56 32 -56 49 0 7 -5 13 -11 13 -5 0 -7 5
-4 10 3 6 1 10 -5 10 -6 0 -14 8 -17 18 -4 9 -15 26 -25 36 -9 10 -15 23 -12
28 3 4 0 8 -6 8 -7 0 -10 7 -6 15 3 10 -1 15 -12 16 -11 0 -13 2 -4 6 10 4 9
8 -4 17 -9 7 -17 27 -18 43 0 17 -5 31 -11 30 -5 -1 -9 4 -7 10 1 7 -3 13 -9
13 -8 0 -7 5 1 15 7 9 10 18 6 22 -3 3 -6 0 -6 -7 0 -10 -3 -11 -11 -3 -6 6
-12 32 -13 56 0 25 -5 44 -10 44 -4 -1 -10 6 -11 15 -2 10 1 18 7 18 5 0 2 7
-6 16 -17 16 -21 29 -8 20 5 -3 9 1 9 9 0 8 -5 11 -10 8 -6 -4 -8 0 -4 10 3 9
2 19 -3 22 -6 3 -5 16 0 31 7 17 7 23 0 19 -6 -4 -9 15 -7 49 1 31 -2 56 -6
56 -5 0 -5 5 -1 12 5 7 11 5 21 -7 7 -11 13 -14 13 -8 0 6 -7 16 -15 23 -17
14 -16 29 5 50 9 8 11 11 4 7 -7 -4 -15 -3 -19 3 -3 5 -3 10 2 10 4 0 8 10 9
23 2 58 23 151 44 202 8 17 14 37 15 45 3 25 17 50 27 50 6 0 6 -6 -1 -14 -8
-10 -9 -16 -1 -21 6 -4 10 -3 9 2 -4 20 2 27 12 13 9 -12 10 -12 5 4 -4 10 -1
25 5 32 8 10 8 14 0 14 -6 0 -11 -4 -11 -10 0 -5 -5 -10 -11 -10 -8 0 -8 4 -1
13 6 6 11 15 12 19 9 38 14 47 22 42 5 -3 4 -12 -3 -20 -9 -11 -8 -15 5 -20 9
-4 20 -4 23 0 4 3 -1 6 -11 6 -9 0 -15 4 -11 10 3 5 13 6 22 3 12 -5 10 0 -5
15 -19 19 -20 25 -10 41 7 11 16 17 20 15 4 -3 8 0 8 7 0 6 20 40 46 75 36 51
49 62 62 56 9 -5 24 -8 32 -7 8 0 19 -4 23 -10 5 -5 5 0 2 13 -6 20 2 27 28
23 4 0 6 5 5 11 -2 7 3 12 10 10 6 -1 12 2 12 8 0 14 -17 13 -26 -1 -4 -8 -11
-3 -20 12 -13 24 -9 44 6 34 5 -3 14 3 20 14 7 13 16 18 28 14 9 -3 14 -3 10
2 -4 4 -3 14 3 21 9 11 15 11 32 0 27 -15 53 -15 49 2 -2 13 14 17 21 5 2 -5
2 -3 1 4 -2 7 1 15 6 18 6 4 10 1 10 -4 0 -6 5 -11 11 -11 5 0 8 4 5 9 -4 5 0
11 6 14 10 3 10 8 -1 18 -12 12 -13 12 -6 0 6 -10 4 -12 -5 -6 -8 5 -11 4 -7
-2 3 -5 0 -10 -8 -10 -8 0 -15 4 -15 9 0 5 -5 6 -11 2 -8 -4 -7 -9 2 -15 12
-7 11 -9 -1 -10 -8 -1 -19 -1 -23 0 -5 1 -5 -4 -1 -10 5 -8 3 -9 -6 -4 -9 6
-11 4 -5 -6 8 -12 6 -12 -8 0 -13 10 -15 17 -6 27 6 8 15 11 20 8 5 -3 12 1
15 10 3 8 12 17 20 20 10 4 12 2 8 -5 -4 -7 -1 -10 7 -7 8 3 13 11 11 17 -1 7
2 10 8 6 5 -3 10 -2 10 3 0 18 63 52 76 41 8 -6 14 -6 18 0 3 5 0 12 -6 14 -7
3 -8 6 -3 6 6 0 16 -3 24 -8 12 -8 12 -12 2 -25 -7 -9 -18 -13 -24 -9 -6 3 -7
1 -3 -5 5 -8 2 -10 -8 -6 -10 4 -16 1 -16 -7 0 -11 -3 -11 -10 1 -6 10 -10 11
-10 3 0 -7 -5 -13 -11 -13 -5 0 -7 5 -4 10 3 6 1 10 -5 10 -11 0 -6 -48 6 -59
4 -3 5 2 1 11 -7 21 21 34 29 13 4 -8 10 -15 16 -15 5 0 7 4 4 8 -9 15 31 41
43 29 7 -7 9 -4 6 12 -3 14 0 21 8 18 7 -2 11 -12 9 -22 -3 -17 -2 -17 13 -1
9 9 21 13 27 10 7 -5 8 -2 4 5 -5 7 -14 10 -21 7 -17 -6 -35 13 -28 32 5 11 3
13 -8 7 -8 -5 -11 -4 -6 0 7 9 12 10 48 18 10 1 24 9 33 16 11 9 16 10 16 2 0
-6 -5 -11 -12 -11 -15 0 -1 -13 18 -16 8 -1 13 4 12 14 -2 9 2 17 7 17 6 0 17
4 25 10 13 7 13 6 2 -7 -11 -13 -9 -15 14 -15 18 0 22 3 15 10 -6 6 -11 15
-11 20 0 5 6 2 13 -5 24 -24 17 -46 -15 -44 -15 0 -28 5 -28 11 0 5 -5 3 -10
-5 -5 -8 -15 -15 -22 -15 -7 0 -13 -5 -13 -12 0 -6 -3 -15 -7 -19 -5 -4 -8 -1
-8 8 0 8 -6 15 -14 15 -12 0 -11 -4 2 -22 16 -22 17 -22 30 -4 13 18 39 28 28
11 -3 -5 2 -9 10 -9 10 0 11 4 4 11 -16 16 -12 30 5 16 8 -7 15 -9 15 -4 0 4
7 -1 15 -12 15 -18 15 -18 8 0 -4 13 -3 17 5 12 7 -4 12 -2 12 5 0 7 3 9 7 6
7 -8 33 11 33 24 0 5 -5 9 -11 9 -5 0 -8 -4 -5 -8 3 -5 -1 -9 -9 -9 -10 0 -12
4 -5 12 5 7 7 15 3 19 -4 4 1 4 12 0 17 -7 18 -6 7 8 -11 13 -7 15 33 13 27
-1 45 3 45 9 1 6 6 2 13 -9 17 -28 42 -30 44 -4 2 18 0 19 -15 7 -15 -12 -16
-11 -3 5 14 17 16 17 27 3 6 -9 14 -16 18 -16z m210 -25 c-7 -17 24 -14 36 4
5 9 10 10 14 2 9 -14 -2 -33 -15 -26 -5 4 -9 0 -9 -7 0 -10 -2 -10 -9 1 -5 8
-11 9 -15 3 -8 -13 -53 -9 -67 5 -7 7 -2 9 18 5 15 -2 25 -1 21 3 -10 10 11
37 23 30 4 -3 6 -12 3 -20z m96 -4 c0 8 9 4 23 -9 28 -26 45 -29 26 -4 -13 16
-12 16 4 3 18 -14 18 -16 1 -28 -14 -10 -15 -13 -3 -13 8 0 20 5 27 12 9 9 15
9 24 0 15 -15 31 -16 22 0 -4 7 -3 8 5 4 6 -4 9 -11 6 -16 -3 -5 -1 -11 5 -15
5 -3 10 0 10 7 0 10 2 10 9 -1 5 -8 14 -10 22 -6 11 6 11 5 2 -5 -14 -15 -75
-22 -66 -7 4 6 0 8 -11 4 -10 -4 -19 -1 -23 8 -4 11 -9 13 -18 5 -9 -7 -16 -6
-25 5 -7 8 -16 13 -20 10 -5 -3 -16 5 -24 17 -14 20 -21 18 -17 -4 0 -5 -3 -8
-9 -8 -13 0 -13 17 0 25 6 4 7 12 3 18 -4 7 0 6 10 -2 14 -11 17 -11 17 0z
m254 -147 c3 -8 2 -12 -4 -9 -6 3 -10 10 -10 16 0 14 7 11 14 -7z m212 -123
c-3 -5 6 -16 19 -25 15 -10 23 -22 19 -28 -5 -7 -14 -3 -26 11 -16 20 -18 21
-18 5 0 -14 -3 -15 -12 -6 -10 10 -10 15 2 22 8 5 11 10 7 10 -9 0 1 20 9 20
3 0 3 -4 0 -9z m-1488 -20 c1 0 -6 -9 -15 -19 -20 -21 -38 -22 -56 -2 -7 8 -8
10 -1 7 7 -4 14 -1 17 7 4 10 39 15 55 7z m1485 -1734 c6 -17 -68 -79 -99 -83
-13 -1 -22 2 -18 7 3 5 0 9 -6 9 -6 0 -8 5 -5 10 4 6 16 8 27 4 13 -4 18 -2
14 4 -8 14 15 28 42 26 15 -1 21 3 18 11 -5 13 2 25 15 25 4 0 9 -6 12 -13z
m-1353 -123 c0 -2 -9 0 -20 6 -11 6 -20 13 -20 16 0 2 9 0 20 -6 11 -6 20 -13
20 -16z m373 -90 c3 -3 3 -13 0 -21 -5 -12 -7 -12 -14 -1 -15 23 -4 40 14 22z
m69 -11 c-6 -2 -9 -10 -6 -15 4 -7 2 -8 -5 -4 -13 9 -5 26 12 25 9 0 8 -2 -1
-6z m532 -1 c3 -5 -1 -9 -9 -9 -8 0 -12 4 -9 9 7 10 11 10 18 0z m-464 -14 c0
-3 -9 -6 -20 -5 -11 1 -20 5 -20 9 0 3 9 6 20 5 11 -1 20 -5 20 -9z m50 2 c0
-5 -5 -10 -11 -10 -5 0 -7 5 -4 10 3 6 8 10 11 10 2 0 4 -4 4 -10z m70 6 c0
-2 -7 -7 -16 -10 -8 -3 -12 -2 -9 4 6 10 25 14 25 6z m80 -2 c0 -8 -19 -13
-24 -6 -3 5 1 9 9 9 8 0 15 -2 15 -3z"/>
<path d="M1270 2311 c0 -5 -10 -8 -23 -7 -17 2 -23 -2 -24 -18 0 -12 -3 -30
-7 -41 -5 -14 -3 -13 5 3 7 13 18 21 26 18 8 -3 12 -2 9 3 -3 5 1 12 10 15 23
9 26 8 17 -6 -11 -17 -11 -68 -1 -68 5 0 6 14 3 32 -5 27 -4 30 10 18 8 -7 18
-10 22 -7 3 4 13 1 22 -5 12 -9 12 -7 -1 7 -17 18 -17 20 0 39 9 12 13 18 8
14 -5 -4 -15 -3 -22 3 -18 15 -27 -6 -13 -32 9 -17 8 -20 -3 -17 -7 3 -14 10
-14 16 -1 7 -2 19 -3 27 -1 16 -21 21 -21 6z m-15 -21 c-3 -5 -12 -10 -18 -10
-7 0 -6 4 3 10 19 12 23 12 15 0z"/>
<path d="M1094 2295 c3 -22 13 -28 48 -27 18 0 27 -2 21 -6 -8 -5 -5 -12 10
-21 20 -13 21 -13 9 2 -9 10 -10 17 -2 22 5 3 10 1 10 -6 0 -10 3 -10 11 -2
12 12 3 36 -11 28 -5 -3 -14 3 -20 12 -10 15 -11 16 -6 1 4 -12 0 -16 -15 -13
-12 3 -17 0 -13 -7 4 -7 3 -8 -4 -4 -6 4 -9 12 -6 19 2 7 -4 13 -15 14 -11 1
-18 -4 -17 -12z"/>
<path d="M885 2243 c-19 -18 -19 -23 0 -23 8 0 14 6 13 13 -2 7 6 11 20 11 12
-1 20 1 17 4 -12 12 -36 10 -50 -5z"/>
<path d="M1095 2250 c-8 -13 8 -18 29 -10 19 6 19 7 -2 12 -12 4 -24 2 -27 -2z"/>
<path d="M1240 2240 c-9 -6 -10 -10 -3 -10 6 0 15 5 18 10 8 12 4 12 -15 0z"/>
<path d="M1153 2225 c0 -8 4 -12 9 -9 5 3 6 10 3 15 -9 13 -12 11 -12 -6z"/>
<path d="M1060 2220 c0 -5 7 -7 15 -4 8 4 15 8 15 10 0 2 -7 4 -15 4 -8 0 -15
-4 -15 -10z"/>
<path d="M774 2205 c-18 -14 -18 -14 5 -10 28 5 36 11 23 19 -5 3 -18 -1 -28
-9z"/>
<path d="M1335 2201 c-3 -5 -2 -12 3 -15 5 -3 9 1 9 9 0 17 -3 19 -12 6z"/>
<path d="M1415 2200 c3 -5 8 -10 11 -10 2 0 4 5 4 10 0 6 -5 10 -11 10 -5 0
-7 -4 -4 -10z"/>
<path d="M1055 2159 c-3 -4 2 -6 10 -5 21 3 28 13 10 13 -9 0 -18 -4 -20 -8z"/>
<path d="M1105 2160 c-3 -6 1 -7 9 -4 18 7 21 14 7 14 -6 0 -13 -4 -16 -10z"/>
<path d="M1210 2159 c0 -5 5 -7 10 -4 6 3 10 8 10 11 0 2 -4 4 -10 4 -5 0 -10
-5 -10 -11z"/>
<path d="M1250 2160 c0 -5 5 -10 11 -10 5 0 7 5 4 10 -3 6 -8 10 -11 10 -2 0
-4 -4 -4 -10z"/>
<path d="M1710 2145 c0 -8 4 -15 10 -15 5 0 7 7 4 15 -4 8 -8 15 -10 15 -2 0
-4 -7 -4 -15z"/>
<path d="M771 2134 c0 -11 3 -14 6 -6 3 7 2 16 -1 19 -3 4 -6 -2 -5 -13z"/>
<path d="M1155 2130 c-3 -5 -1 -10 4 -10 6 0 11 5 11 10 0 6 -2 10 -4 10 -3 0
-8 -4 -11 -10z"/>
<path d="M1823 2126 c1 -34 -4 -47 -15 -40 -7 4 -8 3 -4 -5 9 -14 26 -5 26 15
0 8 5 12 11 9 6 -4 8 -10 5 -13 -3 -3 -1 -11 6 -19 9 -11 14 -11 31 4 19 17
19 17 13 -4 -5 -15 -3 -23 4 -23 6 0 8 4 5 10 -4 6 1 7 11 3 14 -5 13 -8 -7
-19 -21 -12 -21 -13 -4 -11 11 1 21 -2 22 -7 1 -5 7 -12 14 -17 16 -9 52 8 44
22 -4 5 -10 7 -14 5 -12 -8 -63 49 -54 59 5 4 3 5 -3 2 -7 -4 -17 0 -24 8 -9
11 -16 12 -25 5 -14 -12 -31 3 -21 18 3 5 -1 9 -8 9 -7 0 -13 -5 -13 -11z m56
-42 c-6 -7 -15 -11 -21 -8 -5 3 -4 12 3 20 6 7 15 11 21 8 5 -3 4 -12 -3 -20z
m80 -68 c-3 -3 -11 5 -18 17 -13 21 -12 21 5 5 10 -10 16 -20 13 -22z"/>
<path d="M1127 2117 c-3 -8 1 -14 8 -14 7 0 11 6 8 14 -3 7 -6 13 -8 13 -2 0
-5 -6 -8 -13z"/>
<path d="M1020 2097 c-20 -17 -24 -28 -19 -47 3 -14 1 -31 -4 -37 -6 -9 -5
-13 3 -13 9 0 9 -4 -1 -17 -12 -15 -12 -16 1 -8 12 7 13 6 3 -7 -7 -8 -10 -18
-6 -21 3 -4 0 -14 -8 -24 -8 -9 -9 -14 -3 -10 15 8 25 -26 13 -44 -5 -8 -3
-17 4 -21 9 -6 9 -8 -1 -8 -7 0 -10 -5 -7 -11 10 -15 13 -59 5 -59 -4 0 -5
-15 -1 -32 7 -35 6 -73 -2 -126 -2 -18 -1 -35 4 -38 4 -2 4 -15 -1 -28 -5 -13
-7 -26 -4 -28 8 -8 11 -68 4 -68 -4 0 -5 -15 -1 -32 7 -35 6 -73 -2 -126 -2
-18 -1 -34 3 -37 7 -5 7 -35 -1 -50 -5 -9 -4 -31 0 -37 6 -9 7 -80 1 -83 -5
-3 -5 -20 -1 -37 3 -18 5 -42 5 -53 -1 -11 -2 -35 -3 -52 l-1 -33 -70 0 c-73
0 -83 -7 -51 -37 12 -11 18 -28 16 -45 -3 -29 14 -42 41 -31 14 5 15 3 4 -17
-10 -18 -14 -20 -22 -9 -8 11 -9 11 -5 -2 3 -9 1 -21 -4 -26 -6 -6 -4 -10 5
-10 8 0 13 4 11 7 -3 4 7 7 20 7 14 1 25 -3 25 -8 0 -5 -8 -9 -17 -9 -15 0
-16 -2 -3 -10 10 -6 16 -6 18 0 2 6 8 7 13 4 6 -3 5 -11 -2 -20 -11 -14 -2
-20 24 -15 5 1 7 -4 4 -11 -2 -7 -10 -12 -17 -10 -11 3 -11 0 0 -12 7 -9 18
-16 24 -16 6 0 5 4 -3 9 -9 6 -10 10 -2 16 7 3 9 14 7 23 -3 10 -1 24 5 32 8
12 9 9 4 -9 -5 -15 -3 -21 3 -17 6 4 17 -1 24 -9 7 -9 19 -21 26 -28 40 -36
77 -80 77 -90 0 -7 5 -12 12 -12 15 0 28 -13 28 -28 0 -7 5 -12 12 -12 6 0 15
-4 20 -9 5 -5 3 -6 -4 -2 -8 4 -13 2 -13 -6 0 -10 -2 -10 -9 0 -4 8 -12 14
-17 14 -5 0 -8 4 -6 9 1 6 -7 5 -18 -1 -23 -12 -19 -29 8 -29 9 0 31 -2 49 -3
20 -3 34 1 37 9 3 7 11 12 18 11 7 -2 12 4 13 12 0 8 10 19 23 25 12 5 20 15
18 22 -3 6 1 17 9 23 12 10 13 8 10 -8 -5 -27 16 -44 35 -30 12 8 12 9 -2 4
-10 -3 -20 -1 -23 4 -4 6 -2 10 4 10 6 0 7 7 4 17 -5 12 -3 14 7 8 10 -6 12
-4 8 7 -4 8 -2 21 3 29 7 12 10 12 21 0 11 -11 11 -13 -1 -6 -10 6 -12 4 -6
-5 6 -9 4 -11 -5 -5 -8 5 -11 4 -6 -3 9 -16 38 -2 32 14 -3 8 -9 22 -12 32 -5
16 -5 16 6 -1 6 -9 16 -15 22 -11 6 4 8 -1 3 -15 -3 -11 -2 -21 3 -21 8 0 10
6 14 50 3 24 6 25 30 3 10 -9 18 -13 18 -10 0 12 -43 46 -52 41 -5 -3 -6 -15
-3 -27 5 -17 4 -19 -4 -7 -9 12 -11 13 -11 1 0 -8 -3 -12 -6 -8 -4 3 3 21 15
39 11 18 21 28 21 23 0 -12 59 -40 67 -31 4 3 -2 6 -12 6 -10 0 -15 3 -12 7 4
3 2 12 -4 20 -14 17 2 17 20 1 11 -11 12 -10 6 1 -6 10 -4 13 7 9 16 -7 19 25
3 39 -4 5 -5 2 -1 -4 5 -9 2 -11 -11 -7 -14 4 -15 3 -4 -4 9 -7 10 -12 2 -16
-6 -4 -11 -2 -11 5 0 8 -4 8 -15 -1 -8 -7 -12 -16 -9 -21 3 -5 0 -9 -5 -9 -6
0 -11 4 -11 10 0 11 40 50 52 50 4 0 8 6 8 14 0 7 6 18 13 24 10 8 13 6 13 -8
0 -10 -4 -16 -8 -14 -4 3 -8 1 -8 -4 0 -14 25 -22 39 -12 10 5 9 9 -2 13 -17
6 -11 57 6 57 6 0 7 3 4 7 -10 9 43 54 55 47 6 -4 8 -2 5 3 -4 6 -28 11 -54
12 -91 2 -97 4 -97 31 0 14 4 32 9 39 6 10 4 12 -6 6 -12 -8 -12 -6 0 8 7 9 9
17 4 17 -5 0 -10 13 -10 30 0 16 5 27 10 23 5 -3 4 5 -3 17 -8 15 -8 20 -1 16
6 -4 11 -3 11 3 0 5 -6 12 -12 14 -10 4 -10 8 1 15 11 8 11 10 0 15 -12 5 -12
6 0 6 11 1 11 4 0 18 -10 11 -10 14 -1 9 6 -4 12 -3 12 3 0 5 -6 11 -12 14 -9
3 -7 10 7 21 13 10 15 15 5 14 -11 -2 -14 10 -15 57 -1 33 2 70 7 82 4 14 3
24 -5 27 -9 5 -9 7 1 12 6 3 9 11 5 17 -10 16 -11 236 -2 264 5 14 4 24 -4 27
-9 5 -9 7 1 12 6 3 9 11 5 17 -12 19 -11 207 1 200 6 -4 5 0 -2 9 -9 11 -10
18 -2 23 7 4 7 13 -1 27 -7 13 -7 18 -1 14 6 -3 14 -2 17 4 4 6 1 9 -7 8 -8
-2 -13 7 -13 27 0 28 -3 30 -45 35 -30 3 -44 9 -42 18 1 8 -2 11 -8 7 -6 -3
-8 -11 -5 -16 4 -5 -1 -9 -9 -9 -9 0 -16 5 -16 10 0 6 -5 10 -11 10 -5 0 -7
-4 -4 -10 3 -5 1 -10 -4 -10 -6 0 -11 6 -11 13 0 8 -3 9 -8 1 -9 -14 -43 -14
-61 0 -11 8 -13 8 -7 -1 4 -7 3 -13 -1 -13 -5 0 -15 6 -22 13 -8 7 -11 7 -8 1
4 -7 -3 -11 -18 -11 -14 0 -25 3 -25 8 0 5 -5 9 -11 9 -5 0 -8 -3 -6 -8 3 -4
-28 -8 -69 -8 -62 -1 -72 1 -63 12 17 21 7 16 -21 -9z m-87 -1281 c7 4 7 2 -1
-7 -11 -12 -14 -12 -22 1 -5 8 -6 19 -2 25 4 6 8 3 10 -8 2 -10 9 -14 15 -11z
m59 -71 c-2 -4 2 -11 8 -15 10 -6 10 -12 0 -26 -9 -16 -11 -16 -6 -2 3 10 1
20 -5 23 -5 4 -7 10 -4 15 6 10 -23 22 -36 14 -10 -6 -12 9 -2 19 8 9 49 -17
45 -28z"/>
<path d="M1770 2100 c0 -5 5 -10 11 -10 5 0 7 5 4 10 -3 6 -8 10 -11 10 -2 0
-4 -4 -4 -10z"/>
<path d="M599 2095 c-1 -3 -3 -9 -4 -15 -1 -5 -3 -15 -4 -21 -1 -8 -7 -7 -18
2 -9 8 -14 9 -10 3 6 -11 -19 -29 -35 -26 -4 1 -4 -6 -1 -15 6 -14 7 -14 18 0
9 12 15 13 23 5 14 -14 54 -19 46 -6 -3 5 -13 7 -21 6 -9 -2 -18 2 -20 9 -3 8
6 10 29 8 24 -3 29 -2 18 5 -14 9 -6 15 15 10 5 -1 1 8 -9 19 -20 22 -25 25
-27 16z m16 -14 c3 -5 2 -12 -3 -15 -5 -3 -9 1 -9 9 0 17 3 19 12 6z"/>
<path d="M442 1945 c4 -4 -4 -17 -18 -27 -14 -11 -23 -22 -21 -25 3 -2 -6 -16
-19 -30 -14 -15 -23 -32 -20 -39 2 -6 -7 -17 -21 -23 -20 -9 -23 -14 -13 -26
15 -19 31 -10 24 13 -5 14 -3 14 10 -2 15 -18 15 -17 11 18 -3 22 -1 35 4 31
5 -3 12 -1 16 5 4 6 11 7 17 4 7 -5 8 -2 3 6 -6 10 -4 12 8 7 9 -3 19 -2 22 4
4 5 3 9 -2 8 -20 -3 -34 2 -28 11 4 6 11 7 17 4 7 -5 8 -2 3 6 -6 10 -4 12 9
7 11 -5 15 -3 10 5 -5 8 -2 9 10 5 11 -5 15 -3 10 5 -5 8 -2 9 10 5 10 -4 15
-3 11 4 -4 5 -16 7 -27 3 -13 -4 -18 -2 -14 4 3 6 1 14 -6 18 -7 4 -10 4 -6
-1z m7 -28 c-2 -1 -13 -9 -24 -17 -19 -14 -19 -14 -6 3 7 9 18 17 24 17 6 0 8
-1 6 -3z m-39 -51 c0 -2 -7 -9 -15 -16 -13 -11 -14 -10 -9 4 5 14 24 23 24 12z"/>
<path d="M2100 1875 c-7 -8 -16 -13 -19 -10 -4 2 -8 -2 -8 -10 0 -12 4 -12 20
2 19 17 19 17 13 -7 -3 -14 -3 -19 0 -12 10 21 26 13 20 -10 -3 -13 -3 -18 0
-11 4 10 8 10 19 0 7 -7 11 -15 8 -19 -2 -5 2 -8 9 -8 9 0 9 -3 -2 -10 -12 -7
-10 -9 7 -7 13 1 19 5 14 12 -4 5 -22 28 -39 51 -17 23 -29 44 -25 48 3 3 4 6
1 6 -3 0 -11 -7 -18 -15z"/>
<path d="M2120 1760 c-9 -6 -10 -10 -3 -10 6 0 15 5 18 10 8 12 4 12 -15 0z"/>
<path d="M2180 1725 c-9 -10 -9 -15 -1 -15 6 0 11 5 11 10 0 6 5 10 11 10 6 0
8 -10 5 -22 -3 -13 -3 -17 0 -10 3 6 10 9 16 6 6 -4 5 2 -1 15 -14 25 -24 26
-41 6z"/>
<path d="M2176 1683 c-6 -14 -5 -15 5 -6 7 7 10 15 7 18 -3 3 -9 -2 -12 -12z"/>
<path d="M2213 1675 c-3 -9 -3 -19 1 -22 3 -4 6 1 6 11 0 10 5 14 12 10 7 -4
8 -3 4 4 -10 16 -15 15 -23 -3z"/>
<path d="M268 1603 c7 -3 16 -2 19 1 4 3 -2 6 -13 5 -11 0 -14 -3 -6 -6z"/>
<path d="M2240 1591 c0 -6 4 -13 10 -16 6 -3 7 1 4 9 -7 18 -14 21 -14 7z"/>
<path d="M2260 1545 c0 -8 4 -15 10 -15 5 0 7 7 4 15 -4 8 -8 15 -10 15 -2 0
-4 -7 -4 -15z"/>
<path d="M240 1542 c0 -5 7 -9 15 -9 8 0 12 4 9 9 -3 4 -9 8 -15 8 -5 0 -9 -4
-9 -8z"/>
<path d="M228 1503 c7 -3 16 -2 19 1 4 3 -2 6 -13 5 -11 0 -14 -3 -6 -6z"/>
<path d="M205 1480 c-3 -5 -1 -10 4 -10 6 0 11 5 11 10 0 6 -2 10 -4 10 -3 0
-8 -4 -11 -10z"/>
<path d="M190 1386 c0 -2 7 -7 16 -10 8 -3 12 -2 9 4 -6 10 -25 14 -25 6z"/>
<path d="M2310 1261 c0 -6 4 -13 10 -16 6 -3 7 1 4 9 -7 18 -14 21 -14 7z"/>
<path d="M1516 953 c-6 -14 -5 -15 5 -6 7 7 10 15 7 18 -3 3 -9 -2 -12 -12z"/>
<path d="M979 958 c-5 -18 -6 -38 -1 -34 7 8 12 36 6 36 -2 0 -4 -1 -5 -2z"/>
<path d="M1612 865 c3 -3 16 -8 28 -10 12 -2 20 -1 16 2 -4 4 -16 8 -28 10
-12 2 -19 1 -16 -2z"/>
<path d="M875 849 c-4 -6 -5 -12 -2 -15 2 -3 7 2 10 11 7 17 1 20 -8 4z"/>
<path d="M1610 826 c0 -2 7 -7 16 -10 8 -3 12 -2 9 4 -6 10 -25 14 -25 6z"/>
<path d="M1580 799 c0 -9 31 -21 38 -14 3 3 0 5 -7 5 -7 0 -10 4 -7 8 3 5 -1
9 -9 9 -8 0 -15 -4 -15 -8z"/>
<path d="M876 778 c3 -5 10 -6 15 -3 13 9 11 12 -6 12 -8 0 -12 -4 -9 -9z"/>
<path d="M1033 669 c-1 -10 2 -19 7 -19 4 0 11 -7 14 -16 5 -14 4 -15 -8 -5
-11 9 -15 8 -20 -4 -3 -9 -2 -14 3 -10 5 3 17 2 26 -1 13 -6 14 -9 3 -16 -9
-7 -8 -8 5 -4 13 4 20 0 24 -13 7 -26 25 -32 46 -16 16 11 14 16 -23 49 -22
20 -45 36 -51 36 -5 0 -8 4 -5 9 3 5 0 14 -7 19 -10 8 -13 6 -14 -9z m81 -67
c10 -12 15 -26 11 -33 -8 -12 -31 11 -56 54 -9 16 -8 17 8 9 10 -6 26 -19 37
-30z"/>
<path d="M1096 598 c10 -14 21 -24 23 -22 3 3 -6 15 -18 27 l-24 22 19 -27z"/>
<path d="M1405 590 c-4 -6 -11 -8 -16 -5 -5 4 -9 2 -9 -3 0 -6 8 -13 17 -16
10 -4 14 -4 10 0 -4 4 -2 13 4 21 6 7 9 13 6 13 -3 0 -9 -5 -12 -10z"/>
<path d="M2055 560 c3 -5 8 -10 11 -10 2 0 4 5 4 10 0 6 -5 10 -11 10 -5 0 -7
-4 -4 -10z"/>
<path d="M1135 550 c-3 -5 -3 -10 2 -10 4 0 1 -5 -7 -10 -9 -6 -10 -10 -3 -10
6 0 14 4 18 9 3 6 15 8 27 6 11 -3 17 -1 14 3 -4 4 -11 7 -14 7 -4 0 -12 4
-19 8 -6 4 -14 3 -18 -3z"/>
<path d="M1090 540 c0 -5 5 -10 11 -10 5 0 7 5 4 10 -3 6 -8 10 -11 10 -2 0
-4 -4 -4 -10z"/>
<path d="M1310 535 c-14 -8 -21 -14 -16 -15 5 0 3 -7 -4 -15 -7 -8 -16 -12
-21 -9 -5 3 -6 -1 -3 -9 4 -11 -6 -14 -45 -13 -27 1 -47 -2 -44 -6 2 -5 13 -8
23 -8 14 0 18 -5 13 -17 -5 -15 -3 -15 11 2 13 14 16 15 13 4 -3 -9 1 -16 8
-16 7 0 10 9 8 21 -4 17 -3 18 6 6 6 -9 11 -10 11 -3 0 11 37 29 52 25 4 -1 4
6 1 16 -6 15 -5 16 13 2 17 -14 18 -14 6 2 -10 13 -10 17 0 21 9 3 10 8 3 15
-7 7 -18 6 -35 -3z m13 -20 c-10 -13 -24 -27 -32 -30 -15 -6 12 31 34 47 17
13 17 9 -2 -17z"/>
<path d="M580 455 c-19 -22 -8 -25 13 -3 9 10 13 18 8 18 -5 0 -14 -7 -21 -15z"/>
<path d="M1296 462 c-3 -5 1 -9 9 -9 8 0 12 4 9 9 -3 4 -7 8 -9 8 -2 0 -6 -4
-9 -8z"/>
<path d="M640 380 c-23 -7 -23 -8 -3 -9 12 -1 25 4 28 9 3 6 5 10 3 9 -2 -1
-14 -5 -28 -9z"/>
<path d="M735 321 c-3 -5 -2 -12 3 -15 5 -3 9 1 9 9 0 17 -3 19 -12 6z"/>
<path d="M1650 280 c0 -5 5 -10 11 -10 5 0 7 5 4 10 -3 6 -8 10 -11 10 -2 0
-4 -4 -4 -10z"/>
<path d="M1005 260 c-3 -6 1 -7 9 -4 18 7 21 14 7 14 -6 0 -13 -4 -16 -10z"/>
<path d="M953 235 c0 -8 4 -12 9 -9 5 3 6 10 3 15 -9 13 -12 11 -12 -6z"/>
<path d="M1407 239 c7 -7 15 -10 18 -7 3 3 -2 9 -12 12 -14 6 -15 5 -6 -5z"/>
<path d="M1466 238 c3 -5 10 -6 15 -3 13 9 11 12 -6 12 -8 0 -12 -4 -9 -9z"/>
<path d="M1113 212 c2 -12 6 -24 10 -28 3 -4 4 4 2 16 -6 30 -16 40 -12 12z"/>
<path d="M1196 202 c-3 -5 1 -9 9 -9 8 0 12 4 9 9 -3 4 -7 8 -9 8 -2 0 -6 -4
-9 -8z"/>
<path d="M1380 206 c0 -2 8 -10 18 -17 15 -13 16 -12 3 4 -13 16 -21 21 -21
13z"/>
<path d="M1236 187 c3 -10 9 -15 12 -12 3 3 0 11 -7 18 -10 9 -11 8 -5 -6z"/>
<path d="M1315 190 c-4 -6 -11 -8 -16 -5 -5 4 -9 2 -9 -4 0 -5 8 -9 18 -8 10
0 19 7 19 14 0 16 -4 16 -12 3z"/>
<path d="M1552 2258 c2 -6 12 -12 22 -14 14 -2 15 0 5 12 -14 17 -32 19 -27 2z"/>
<path d="M1638 2233 c6 -2 9 -10 6 -15 -4 -7 -2 -8 5 -4 13 9 5 26 -12 25 -9
0 -8 -2 1 -6z"/>
<path d="M476 1973 c-6 -14 -5 -15 5 -6 7 7 10 15 7 18 -3 3 -9 -2 -12 -12z"/>
<path d="M1937 223 c-12 -18 21 -23 35 -5 11 15 11 16 -4 4 -13 -10 -17 -10
-20 0 -3 8 -6 9 -11 1z"/>
<path d="M1910 186 c7 -7 13 -7 20 0 6 6 3 10 -10 10 -13 0 -16 -4 -10 -10z"/>
<path d="M1430 2486 c0 -2 7 -7 16 -10 8 -3 12 -2 9 4 -6 10 -25 14 -25 6z"/>
<path d="M1475 2481 c-3 -5 -2 -12 3 -15 5 -3 9 1 9 9 0 17 -3 19 -12 6z"/>
<path d="M870 2446 c0 -2 7 -7 16 -10 8 -3 12 -2 9 4 -6 10 -25 14 -25 6z"/>
<path d="M918 2433 c7 -3 16 -2 19 1 4 3 -2 6 -13 5 -11 0 -14 -3 -6 -6z"/>
<path d="M735 2411 c-3 -5 -2 -12 3 -15 5 -3 9 1 9 9 0 17 -3 19 -12 6z"/>
<path d="M630 2339 c0 -5 5 -7 10 -4 6 3 10 8 10 11 0 2 -4 4 -10 4 -5 0 -10
-5 -10 -11z"/>
<path d="M506 2262 c-2 -4 4 -8 14 -8 10 0 16 4 14 8 -3 4 -9 8 -14 8 -5 0
-11 -4 -14 -8z"/>
<path d="M30 1025 c0 -5 5 -17 10 -25 5 -8 10 -10 10 -5 0 6 -5 17 -10 25 -5
8 -10 11 -10 5z"/>
<path d="M37 927 c-3 -8 1 -14 8 -14 7 0 11 6 8 14 -3 7 -6 13 -8 13 -2 0 -5
-6 -8 -13z"/>
<path d="M2438 883 c7 -3 16 -2 19 1 4 3 -2 6 -13 5 -11 0 -14 -3 -6 -6z"/>
<path d="M2410 843 c0 -6 5 -15 10 -18 6 -3 10 -11 10 -17 0 -6 -7 -5 -17 3
-16 13 -17 12 -4 -3 12 -17 31 -16 31 1 0 13 -29 47 -30 34z"/>
<path d="M75 821 c-3 -6 3 -9 14 -8 11 0 17 5 15 9 -7 11 -22 10 -29 -1z"/>
<path d="M107 768 c9 -21 21 -38 25 -38 5 0 4 8 -1 19 -6 10 -8 21 -6 25 3 3
2 4 -2 1 -3 -3 -12 3 -20 13 -8 10 -7 3 4 -20z"/>
<path d="M2398 763 c7 -3 16 -2 19 1 4 3 -2 6 -13 5 -11 0 -14 -3 -6 -6z"/>
<path d="M80 740 c8 -5 20 -10 25 -10 6 0 3 5 -5 10 -8 5 -19 10 -25 10 -5 0
-3 -5 5 -10z"/>
<path d="M2386 738 c3 -4 1 -8 -4 -8 -6 0 -12 -7 -16 -15 -3 -8 -2 -14 2 -14
4 1 9 0 12 -1 16 -6 41 -7 35 -2 -4 4 -11 7 -16 7 -5 0 -9 5 -8 10 1 6 4 9 8
8 4 -1 8 4 8 11 0 7 -6 13 -13 13 -7 0 -11 -4 -8 -9z"/>
<path d="M128 713 c-10 -2 -18 -8 -18 -13 0 -5 7 -6 17 -3 10 4 14 2 10 -4 -4
-6 0 -13 8 -16 9 -4 13 -16 10 -37 -2 -16 1 -30 6 -30 6 0 7 9 4 21 -5 15 -4
19 5 14 9 -6 9 -3 1 12 -6 11 -7 24 -3 28 4 5 1 5 -5 1 -12 -6 -18 5 -14 27 0
4 0 6 -1 6 -2 -1 -11 -3 -20 -6z"/>
<path d="M116 658 c3 -4 9 -8 15 -8 5 0 9 4 9 8 0 5 -7 9 -15 9 -8 0 -12 -4
-9 -9z"/>
<path d="M2355 629 c-4 -6 -5 -12 -2 -15 2 -3 7 2 10 11 7 17 1 20 -8 4z"/>
<path d="M186 611 c4 -15 2 -21 -4 -17 -6 4 -8 -2 -4 -16 5 -19 7 -20 10 -5 2
9 8 17 14 17 6 0 7 -8 3 -17 -13 -33 -14 -53 -3 -59 6 -4 8 -2 4 4 -3 6 -2 13
3 17 6 3 7 13 4 23 -6 15 -5 16 12 2 16 -13 16 -10 -3 16 -12 17 -18 35 -14
39 4 5 2 5 -5 2 -6 -4 -14 -1 -17 5 -3 7 -3 2 0 -11z"/>
<path d="M2309 603 c-8 -10 -21 -27 -29 -38 -14 -18 -14 -19 2 -7 9 8 21 11
27 8 5 -3 8 2 6 11 -4 28 6 36 22 16 13 -17 13 -16 3 5 -13 27 -13 27 -31 5z"/>
<path d="M2290 540 c0 -5 5 -10 10 -10 6 0 10 5 10 10 0 6 -4 10 -10 10 -5 0
-10 -4 -10 -10z"/>
<path d="M225 531 c-3 -6 -1 -19 4 -28 6 -10 11 -14 11 -10 0 4 9 3 20 -3 20
-11 23 -29 5 -43 -6 -5 -3 -7 7 -4 15 5 39 -32 45 -71 1 -8 4 -17 8 -20 3 -4
4 5 1 20 -3 21 -1 25 10 21 8 -3 13 -8 10 -11 -3 -2 -1 -13 4 -23 7 -12 6 -19
-3 -22 -9 -4 -9 -6 1 -6 7 -1 15 6 18 14 4 8 10 12 16 9 5 -3 4 -12 -3 -20 -6
-8 -9 -17 -5 -21 3 -3 6 -1 6 5 0 6 7 9 16 5 13 -5 13 -8 2 -15 -10 -8 -9 -9
4 -4 10 3 20 1 23 -4 6 -9 -8 -14 -28 -11 -5 1 -6 -3 -2 -9 4 -7 12 -7 25 0
25 14 37 13 22 -2 -7 -7 -12 -16 -12 -22 0 -5 6 -1 14 9 11 15 12 24 3 40 -6
11 -10 24 -9 29 2 5 -3 4 -10 -2 -8 -6 -19 -7 -27 -3 -10 6 -10 10 -2 16 9 5
9 10 0 21 -9 12 -15 12 -27 2 -13 -10 -14 -10 -8 0 6 11 -15 43 -29 42 -23 -1
-27 2 -22 20 3 14 -5 29 -29 50 -19 16 -33 35 -32 41 4 15 -18 23 -27 10z m25
-5 c0 -3 -4 -8 -10 -11 -5 -3 -10 -1 -10 4 0 6 5 11 10 11 6 0 10 -2 10 -4z
m51 -73 c13 -16 12 -17 -3 -4 -10 7 -18 15 -18 17 0 8 8 3 21 -13z"/>
<path d="M2230 505 c-13 -14 -20 -25 -15 -25 5 0 -2 -11 -15 -25 -13 -14 -20
-25 -16 -25 5 0 3 -7 -4 -15 -7 -8 -16 -13 -20 -10 -4 3 -11 -3 -15 -13 -12
-28 -14 -62 -4 -62 6 0 7 5 3 12 -5 8 -2 9 10 5 10 -4 15 -3 11 3 -3 6 -1 10
6 10 7 0 4 7 -7 15 -17 13 -17 14 -1 15 9 0 17 4 17 10 0 5 6 8 13 6 6 -1 8
-1 4 2 -4 2 -3 10 4 18 6 8 8 14 5 14 -4 0 -1 6 6 14 11 11 14 11 24 -2 9 -13
11 -13 11 2 0 9 -4 16 -9 16 -5 0 -6 5 -3 10 5 8 11 7 21 -1 10 -8 14 -8 14 0
0 6 -5 11 -11 11 -5 0 -7 5 -4 10 4 6 10 8 15 5 5 -3 12 0 16 7 4 7 4 10 -1 6
-4 -4 -13 -3 -20 2 -8 7 -19 2 -35 -15z m30 12 c0 -2 -10 -12 -22 -23 l-23
-19 19 23 c18 21 26 27 26 19z"/>
<path d="M275 400 c3 -5 8 -10 11 -10 2 0 4 5 4 10 0 6 -5 10 -11 10 -5 0 -7
-4 -4 -10z"/>
<path d="M2190 378 c0 -4 4 -8 9 -8 6 0 12 4 15 8 3 5 -1 9 -9 9 -8 0 -15 -4
-15 -9z"/>
<path d="M2090 345 c-10 -13 -9 -15 9 -15 11 0 21 4 21 9 0 18 -18 21 -30 6z"/>
<path d="M2066 313 c-4 -5 -12 -8 -17 -8 -13 0 -13 -19 0 -23 6 -2 11 1 11 8
0 6 5 8 12 4 7 -5 5 -11 -7 -21 -11 -7 -15 -13 -9 -13 18 0 30 15 31 38 2 22
-7 28 -21 15z"/>
<path d="M2103 303 c0 -9 4 -10 14 -2 7 6 13 12 13 14 0 1 -6 2 -13 2 -8 0
-14 -6 -14 -14z"/>
<path d="M486 245 c3 -15 1 -24 -4 -21 -5 3 -9 -1 -9 -9 0 -17 14 -10 27 15 7
13 6 21 -5 30 -12 10 -13 7 -9 -15z"/>
<path d="M496 202 c-3 -5 1 -9 9 -9 8 0 12 4 9 9 -3 4 -7 8 -9 8 -2 0 -6 -4
-9 -8z"/>
<path d="M1995 200 c-3 -6 1 -7 9 -4 18 7 21 14 7 14 -6 0 -13 -4 -16 -10z"/>
<path d="M550 172 c0 -5 7 -9 15 -9 8 0 12 4 9 9 -3 4 -9 8 -15 8 -5 0 -9 -4
-9 -8z"/>
<path d="M1960 160 c-9 -6 -10 -10 -3 -10 6 0 15 5 18 10 8 12 4 12 -15 0z"/>
<path d="M670 122 c0 -7 54 -47 65 -47 5 -1 9 -7 7 -15 -3 -11 0 -11 12 -1 12
10 20 9 41 -5 14 -9 25 -13 24 -8 -4 21 2 28 11 14 8 -12 11 -13 22 -2 7 8 9
13 3 12 -5 -2 -12 -1 -15 0 -10 3 -45 11 -65 14 -11 2 -19 10 -19 19 1 9 -2
14 -7 11 -5 -3 -9 -1 -9 3 0 5 -16 9 -35 9 -19 0 -35 -2 -35 -4z m60 -11 c3
-1 11 -11 19 -23 13 -20 12 -22 -1 -11 -8 7 -17 11 -20 8 -3 -3 -13 4 -22 14
-17 19 -17 19 1 16 10 -2 20 -4 23 -4z m75 -49 c-3 -3 -11 0 -18 7 -9 10 -8
11 6 5 10 -3 15 -9 12 -12z"/>
<path d="M630 106 c0 -2 9 -6 20 -9 11 -3 18 -1 14 4 -5 9 -34 13 -34 5z"/>
<path d="M760 46 c0 -2 7 -7 16 -10 8 -3 12 -2 9 4 -6 10 -25 14 -25 6z"/>
<path d="M830 25 c0 -8 4 -15 10 -15 5 0 7 7 4 15 -4 8 -8 15 -10 15 -2 0 -4
-7 -4 -15z"/>
</g>
</svg>
